<?xml version="1.0" encoding="UTF-8"?>
<!DOCTYPE svg PUBLIC "-//W3C//DTD SVG 1.1//EN" "http://www.w3.org/Graphics/SVG/1.1/DTD/svg11.dtd">
<svg xmlns="http://www.w3.org/2000/svg" version="1.1" width="510px" height="495px" style="shape-rendering:geometricPrecision; text-rendering:geometricPrecision; image-rendering:optimizeQuality; fill-rule:evenodd; clip-rule:evenodd" xmlns:xlink="http://www.w3.org/1999/xlink">
<g><path style="opacity:1" fill="#f4f4f4" d="M -0.5,-0.5 C 169.167,-0.5 338.833,-0.5 508.5,-0.5C 459.841,125.805 411.175,252.138 362.5,378.5C 321.172,379.5 279.839,379.833 238.5,379.5C 238.5,349.833 238.5,320.167 238.5,290.5C 182.5,290.5 126.5,290.5 70.5,290.5C 70.5,320.167 70.5,349.833 70.5,379.5C 46.8333,379.5 23.1667,379.5 -0.5,379.5C -0.5,252.833 -0.5,126.167 -0.5,-0.5 Z"/></g>
<g><path style="opacity:1" fill="#fefefe" d="M 508.5,-0.5 C 508.833,-0.5 509.167,-0.5 509.5,-0.5C 509.5,164.5 509.5,329.5 509.5,494.5C 339.5,494.5 169.5,494.5 -0.5,494.5C -0.5,456.167 -0.5,417.833 -0.5,379.5C 23.1667,379.5 46.8333,379.5 70.5,379.5C 70.5,395.833 70.5,412.167 70.5,428.5C 126.5,428.5 182.5,428.5 238.5,428.5C 238.5,412.167 238.5,395.833 238.5,379.5C 279.839,379.833 321.172,379.5 362.5,378.5C 411.175,252.138 459.841,125.805 508.5,-0.5 Z"/></g>
<g><path style="opacity:1" fill="#ba3136" d="M 238.5,379.5 C 238.5,395.833 238.5,412.167 238.5,428.5C 182.5,428.5 126.5,428.5 70.5,428.5C 70.5,412.167 70.5,395.833 70.5,379.5C 70.5,349.833 70.5,320.167 70.5,290.5C 126.5,290.5 182.5,290.5 238.5,290.5C 238.5,320.167 238.5,349.833 238.5,379.5 Z"/></g>
<g><path style="opacity:1" fill="#fefcfc" d="M 110.5,322.5 C 110.5,334.167 110.5,345.833 110.5,357.5C 107.5,357.5 104.5,357.5 101.5,357.5C 101.831,349.804 101.497,342.138 100.5,334.5C 99.8933,334.624 99.56,334.957 99.5,335.5C 97.8333,335.5 96.1667,335.5 94.5,335.5C 94.5,333.5 94.5,331.5 94.5,329.5C 99.2931,329.456 101.96,327.123 102.5,322.5C 105.167,322.5 107.833,322.5 110.5,322.5 Z"/></g>
<g><path style="opacity:1" fill="#fdf8f8" d="M 117.5,322.5 C 125.5,322.5 133.5,322.5 141.5,322.5C 141.5,324.833 141.5,327.167 141.5,329.5C 135.5,329.5 129.5,329.5 123.5,329.5C 123.34,331.199 123.506,332.866 124,334.5C 139.838,330.338 145.838,336.338 142,352.5C 136.72,358.17 130.22,360.004 122.5,358C 117.332,356.34 114.665,352.84 114.5,347.5C 117.572,347.183 120.572,347.516 123.5,348.5C 127.49,353.965 130.99,353.632 134,347.5C 135.157,343.654 133.991,340.821 130.5,339C 125.969,341.181 120.969,342.348 115.5,342.5C 115.868,335.784 116.535,329.117 117.5,322.5 Z"/></g>
<g><path style="opacity:1" fill="#fefbfb" d="M 148.5,345.5 C 148.5,343.167 148.5,340.833 148.5,338.5C 151.385,338.806 154.052,338.473 156.5,337.5C 156.5,334.833 156.5,332.167 156.5,329.5C 159.167,329.5 161.833,329.5 164.5,329.5C 164.5,332.167 164.5,334.833 164.5,337.5C 167.5,337.5 170.5,337.5 173.5,337.5C 173.5,340.167 173.5,342.833 173.5,345.5C 170.5,345.5 167.5,345.5 164.5,345.5C 164.5,348.5 164.5,351.5 164.5,354.5C 161.833,354.5 159.167,354.5 156.5,354.5C 156.5,351.5 156.5,348.5 156.5,345.5C 153.833,345.5 151.167,345.5 148.5,345.5 Z"/></g>
<g><path style="opacity:1" fill="#df9fa1" d="M 110.5,322.5 C 111.495,334.322 111.828,346.322 111.5,358.5C 107.833,358.5 104.167,358.5 100.5,358.5C 100.825,350.648 100.492,342.982 99.5,335.5C 99.56,334.957 99.8933,334.624 100.5,334.5C 101.497,342.138 101.831,349.804 101.5,357.5C 104.5,357.5 107.5,357.5 110.5,357.5C 110.5,345.833 110.5,334.167 110.5,322.5 Z"/></g>
<g><path style="opacity:1" fill="#dd9b9e" d="M 156.5,337.5 C 154.052,338.473 151.385,338.806 148.5,338.5C 148.5,340.833 148.5,343.167 148.5,345.5C 147.527,343.052 147.194,340.385 147.5,337.5C 150.5,337.5 153.5,337.5 156.5,337.5 Z"/></g>
<g><path style="opacity:1" fill="#dd9a9d" d="M 130.5,366.5 C 130.56,365.957 130.893,365.624 131.5,365.5C 132.833,371.167 132.833,376.833 131.5,382.5C 130.893,382.376 130.56,382.043 130.5,381.5C 131.833,376.5 131.833,371.5 130.5,366.5 Z"/></g>
<g><path style="opacity:1" fill="#fdf9f9" d="M 149.5,366.5 C 150.492,366.328 151.158,366.662 151.5,367.5C 150.167,371.833 150.167,376.167 151.5,380.5C 154.518,380.335 157.518,380.502 160.5,381C 156.848,381.499 153.182,381.665 149.5,381.5C 149.5,376.5 149.5,371.5 149.5,366.5 Z"/></g>
<g><path style="opacity:1" fill="#eabfc1" d="M 149.5,366.5 C 153.019,365.192 156.685,365.192 160.5,366.5C 157.572,367.484 154.572,367.817 151.5,367.5C 151.158,366.662 150.492,366.328 149.5,366.5 Z"/></g>
<g><path style="opacity:1" fill="#e5b1b3" d="M 194.5,366.5 C 195.209,365.596 196.209,365.263 197.5,365.5C 197.829,371.206 197.495,376.872 196.5,382.5C 195.893,382.376 195.56,382.043 195.5,381.5C 196.164,379.19 196.497,376.69 196.5,374C 196.475,371.071 195.809,368.571 194.5,366.5 Z"/></g>
<g><path style="opacity:1" fill="#cf7074" d="M 185.5,372.5 C 184.834,375.689 184.167,379.023 183.5,382.5C 182.893,382.376 182.56,382.043 182.5,381.5C 183.324,377.688 183.824,373.688 184,369.5C 184.513,370.527 185.013,371.527 185.5,372.5 Z"/></g>
<g><path style="opacity:1" fill="#f1d3d4" d="M 130.5,366.5 C 131.833,371.5 131.833,376.5 130.5,381.5C 130.5,379.167 130.5,376.833 130.5,374.5C 127.5,374.5 124.5,374.5 121.5,374.5C 120.779,385.042 120.113,384.876 119.5,374C 119.833,371.167 120.167,368.333 120.5,365.5C 121.474,367.743 121.808,370.076 121.5,372.5C 124.5,372.5 127.5,372.5 130.5,372.5C 130.5,370.5 130.5,368.5 130.5,366.5 Z"/></g>
<g><path style="opacity:1" fill="#e8b9bb" d="M 151.5,367.5 C 151.5,369.167 151.5,370.833 151.5,372.5C 160.833,373.167 160.833,373.833 151.5,374.5C 151.5,376.5 151.5,378.5 151.5,380.5C 150.167,376.167 150.167,371.833 151.5,367.5 Z"/></g>
<g><path style="opacity:1" fill="#f3d9da" d="M 135.5,365.5 C 139.257,365.071 142.757,365.737 146,367.5C 146.839,370.14 146.339,372.473 144.5,374.5C 146.52,376.599 146.854,378.933 145.5,381.5C 144.77,379.659 144.103,377.825 143.5,376C 141.19,375.503 138.857,375.337 136.5,375.5C 136.662,377.527 136.495,379.527 136,381.5C 135.501,376.177 135.334,370.844 135.5,365.5 Z"/></g>
<g><path style="opacity:1" fill="#bd393d" d="M 136.5,367.5 C 138.857,367.337 141.19,367.503 143.5,368C 144.833,369.667 144.833,371.333 143.5,373C 141.19,373.497 138.857,373.663 136.5,373.5C 136.5,371.5 136.5,369.5 136.5,367.5 Z"/></g>
<g><path style="opacity:1" fill="#f5dedf" d="M 172.5,365.5 C 173.75,365.577 174.583,366.244 175,367.5C 177.174,372.01 178.507,376.677 179,381.5C 177.812,380.437 177.312,379.103 177.5,377.5C 174.833,377.5 172.167,377.5 169.5,377.5C 169.579,378.93 169.246,380.264 168.5,381.5C 167.833,382.833 167.167,382.833 166.5,381.5C 168.703,376.221 170.703,370.887 172.5,365.5 Z"/></g>
<g><path style="opacity:1" fill="#c14447" d="M 172.5,369.5 C 174.363,370.967 175.696,372.967 176.5,375.5C 174.5,376.833 172.5,376.833 170.5,375.5C 171.372,373.55 172.039,371.55 172.5,369.5 Z"/></g>
<g><path style="opacity:1" fill="#f4ddde" d="M 194.5,366.5 C 195.809,368.571 196.475,371.071 196.5,374C 196.497,376.69 196.164,379.19 195.5,381.5C 195.665,377.818 195.499,374.152 195,370.5C 193.661,374.511 191.828,378.178 189.5,381.5C 187.392,378.843 186.059,375.843 185.5,372.5C 185.013,371.527 184.513,370.527 184,369.5C 183.824,373.688 183.324,377.688 182.5,381.5C 182.172,376.125 182.505,370.792 183.5,365.5C 185.763,369.79 187.929,374.123 190,378.5C 191.605,374.515 193.105,370.515 194.5,366.5 Z"/></g>
<g><path style="opacity:1" fill="#f4dddd" d="M 109.5,365.5 C 110.5,365.5 111.5,365.5 112.5,365.5C 114.134,371.218 115.634,376.885 117,382.5C 115.242,378.203 112.075,376.703 107.5,378C 106.929,379.205 106.262,380.372 105.5,381.5C 105.167,381.167 104.833,380.833 104.5,380.5C 106.468,375.573 108.134,370.573 109.5,365.5 Z"/></g>
<g><path style="opacity:1" fill="#c04245" d="M 110.5,368.5 C 112.267,370.792 113.267,373.458 113.5,376.5C 111.833,376.5 110.167,376.5 108.5,376.5C 108.963,373.779 109.629,371.112 110.5,368.5 Z"/></g>
<g><path style="opacity:1" fill="#f7e5e6" d="M 101.5,365.5 C 102.65,370.316 102.816,375.316 102,380.5C 98.813,383.411 96.313,382.911 94.5,379C 94.6667,378.5 94.8333,378 95,377.5C 96.2242,380.473 98.2242,381.14 101,379.5C 101.499,374.845 101.666,370.179 101.5,365.5 Z"/></g>
<g><path style="opacity:1" fill="#d98f92" d="M 164.5,389.5 C 161.167,388.167 157.833,388.167 154.5,389.5C 153.957,389.44 153.624,389.107 153.5,388.5C 157.5,387.167 161.5,387.167 165.5,388.5C 165.376,389.107 165.043,389.44 164.5,389.5 Z"/></g>
<g><path style="opacity:1" fill="#d88c8f" d="M 95.5,388.5 C 95.1795,393.695 95.5128,398.695 96.5,403.5C 96.44,404.043 96.1067,404.376 95.5,404.5C 94.1853,399.014 94.1853,393.68 95.5,388.5 Z"/></g>
<g><path style="opacity:1" fill="#d88d90" d="M 107.5,388.5 C 108.209,387.596 109.209,387.263 110.5,387.5C 110.829,393.206 110.495,398.872 109.5,404.5C 108.893,404.376 108.56,404.043 108.5,403.5C 109.164,401.19 109.497,398.69 109.5,396C 109.475,393.071 108.809,390.571 107.5,388.5 Z"/></g>
<g><path style="opacity:1" fill="#f0cfd0" d="M 127.5,387.5 C 131.257,387.071 134.757,387.737 138,389.5C 137.333,394.167 137.333,398.833 138,403.5C 137.56,398.237 134.727,396.237 129.5,397.5C 129.808,399.924 129.474,402.257 128.5,404.5C 127.505,398.872 127.171,393.206 127.5,387.5 Z"/></g>
<g><path style="opacity:1" fill="#bb3439" d="M 129.5,389.5 C 131.527,389.338 133.527,389.505 135.5,390C 137.527,391.396 137.86,393.062 136.5,395C 134.19,395.497 131.857,395.663 129.5,395.5C 129.5,393.5 129.5,391.5 129.5,389.5 Z"/></g>
<g><path style="opacity:1" fill="#f1d6d7" d="M 154.5,389.5 C 157.833,388.167 161.167,388.167 164.5,389.5C 163.167,389.5 161.833,389.5 160.5,389.5C 159.833,409.5 159.167,409.5 158.5,389.5C 157.167,389.5 155.833,389.5 154.5,389.5 Z"/></g>
<g><path style="opacity:1" fill="#f4ddde" d="M 117.5,388.5 C 118.5,388.5 119.5,388.5 120.5,388.5C 121.957,393.539 123.624,398.539 125.5,403.5C 125.167,403.833 124.833,404.167 124.5,404.5C 123.052,400.143 120.052,398.643 115.5,400C 113.643,405.285 112.81,405.451 113,400.5C 114.605,396.515 116.105,392.515 117.5,388.5 Z"/></g>
<g><path style="opacity:1" fill="#be3e42" d="M 118.5,390.5 C 120.02,392.89 121.02,395.557 121.5,398.5C 119.473,398.662 117.473,398.495 115.5,398C 116.991,395.692 117.991,393.192 118.5,390.5 Z"/></g>
<g><path style="opacity:1" fill="#f9ebec" d="M 95.5,388.5 C 96.4959,388.414 97.3292,388.748 98,389.5C 99.014,393.378 100.514,397.044 102.5,400.5C 104.561,396.648 106.227,392.648 107.5,388.5C 108.809,390.571 109.475,393.071 109.5,396C 109.497,398.69 109.164,401.19 108.5,403.5C 108.665,399.818 108.499,396.152 108,392.5C 106.694,396.446 104.861,400.112 102.5,403.5C 100.19,399.746 98.3569,395.746 97,391.5C 96.5012,395.486 96.3345,399.486 96.5,403.5C 95.5128,398.695 95.1795,393.695 95.5,388.5 Z"/></g>
<g><path style="opacity:1" fill="#f2d6d7" d="M 141.5,387.5 C 143.22,389.658 144.053,392.325 144,395.5C 146.679,392.256 149.512,389.923 152.5,388.5C 150.684,390.817 148.684,392.984 146.5,395C 148.833,398 151.167,401 153.5,404C 152.833,404.667 152.167,404.667 151.5,404C 149.69,401.356 147.69,398.856 145.5,396.5C 144.914,396.709 144.414,397.043 144,397.5C 143.814,399.9 143.314,402.234 142.5,404.5C 141.505,398.872 141.171,393.206 141.5,387.5 Z"/></g>
</svg>
