<?xml version="1.0" encoding="UTF-8"?>
<!DOCTYPE svg PUBLIC "-//W3C//DTD SVG 1.1//EN" "http://www.w3.org/Graphics/SVG/1.1/DTD/svg11.dtd">
<svg xmlns="http://www.w3.org/2000/svg" version="1.1" width="546px" height="493px" style="shape-rendering:geometricPrecision; text-rendering:geometricPrecision; image-rendering:optimizeQuality; fill-rule:evenodd; clip-rule:evenodd" xmlns:xlink="http://www.w3.org/1999/xlink">
<g><path style="opacity:1" fill="#fefefe" d="M -0.5,-0.5 C 181.5,-0.5 363.5,-0.5 545.5,-0.5C 545.5,-0.166667 545.5,0.166667 545.5,0.5C 365.5,0.5 185.5,0.5 5.5,0.5C 54.2026,128.246 103.203,255.912 152.5,383.5C 196.162,384.5 239.828,384.833 283.5,384.5C 283.5,409.833 283.5,435.167 283.5,460.5C 339.5,460.5 395.5,460.5 451.5,460.5C 451.5,435.167 451.5,409.833 451.5,384.5C 482.833,384.5 514.167,384.5 545.5,384.5C 545.5,420.5 545.5,456.5 545.5,492.5C 363.5,492.5 181.5,492.5 -0.5,492.5C -0.5,328.167 -0.5,163.833 -0.5,-0.5 Z"/></g>
<g><path style="opacity:1" fill="#f4f4f4" d="M 545.5,0.5 C 545.5,128.5 545.5,256.5 545.5,384.5C 514.167,384.5 482.833,384.5 451.5,384.5C 451.5,359.5 451.5,334.5 451.5,309.5C 395.5,309.5 339.5,309.5 283.5,309.5C 283.5,334.5 283.5,359.5 283.5,384.5C 239.828,384.833 196.162,384.5 152.5,383.5C 103.203,255.912 54.2026,128.246 5.5,0.5C 185.5,0.5 365.5,0.5 545.5,0.5 Z"/></g>
<g><path style="opacity:1" fill="#ba3137" d="M 451.5,384.5 C 451.5,409.833 451.5,435.167 451.5,460.5C 395.5,460.5 339.5,460.5 283.5,460.5C 283.5,435.167 283.5,409.833 283.5,384.5C 283.5,359.5 283.5,334.5 283.5,309.5C 339.5,309.5 395.5,309.5 451.5,309.5C 451.5,334.5 451.5,359.5 451.5,384.5 Z"/></g>
<g><path style="opacity:1" fill="#fdfafa" d="M 335.5,369.5 C 335.5,371.833 335.5,374.167 335.5,376.5C 326.167,376.5 316.833,376.5 307.5,376.5C 307.203,372.089 308.369,368.089 311,364.5C 315.247,361.292 319.747,358.458 324.5,356C 328.107,349.949 326.441,347.282 319.5,348C 318.619,348.708 317.953,349.542 317.5,350.5C 314.855,352.242 311.855,352.909 308.5,352.5C 308.189,346.638 310.856,342.804 316.5,341C 323.865,339.052 330.032,340.885 335,346.5C 336.472,352.076 335.305,356.909 331.5,361C 327.332,363.25 323.332,365.75 319.5,368.5C 324.792,369.495 330.125,369.828 335.5,369.5 Z"/></g>
<g><path style="opacity:1" fill="#d88d90" d="M 375.5,340.5 C 372.5,340.5 369.5,340.5 366.5,340.5C 366.5,352.5 366.5,364.5 366.5,376.5C 365.505,364.345 365.171,352.011 365.5,339.5C 369.042,339.187 372.375,339.521 375.5,340.5 Z"/></g>
<g><path style="opacity:1" fill="#fdfafa" d="M 375.5,340.5 C 375.334,345.179 375.501,349.845 376,354.5C 377.393,351.634 379.726,350.301 383,350.5C 387.659,350.148 390.659,352.148 392,356.5C 392.5,363.158 392.666,369.825 392.5,376.5C 389.167,376.5 385.833,376.5 382.5,376.5C 382.666,370.824 382.499,365.157 382,359.5C 379.679,356.967 377.679,357.301 376,360.5C 375.501,365.823 375.334,371.156 375.5,376.5C 372.5,376.5 369.5,376.5 366.5,376.5C 366.5,364.5 366.5,352.5 366.5,340.5C 369.5,340.5 372.5,340.5 375.5,340.5 Z"/></g>
<g><path style="opacity:1" fill="#fdfbfb" d="M 351.5,369.5 C 346.695,368.513 341.695,368.179 336.5,368.5C 336.5,365.833 336.5,363.167 336.5,360.5C 341.158,354.53 345.825,348.53 350.5,342.5C 353.768,341.513 357.102,341.18 360.5,341.5C 360.5,348.167 360.5,354.833 360.5,361.5C 361.5,361.5 362.5,361.5 363.5,361.5C 363.5,363.833 363.5,366.167 363.5,368.5C 362.5,368.5 361.5,368.5 360.5,368.5C 360.5,371.167 360.5,373.833 360.5,376.5C 357.5,376.5 354.5,376.5 351.5,376.5C 351.5,374.167 351.5,371.833 351.5,369.5 Z"/></g>
<g><path style="opacity:1" fill="#d7878b" d="M 317.5,350.5 C 317.5,351.5 317.5,352.5 317.5,353.5C 314.287,353.81 311.287,353.477 308.5,352.5C 311.855,352.909 314.855,352.242 317.5,350.5 Z"/></g>
<g><path style="opacity:1" fill="#c04244" d="M 350.5,353.5 C 351.473,355.948 351.806,358.615 351.5,361.5C 349.143,361.663 346.81,361.497 344.5,361C 346.629,358.561 348.629,356.061 350.5,353.5 Z"/></g>
<g><path style="opacity:1" fill="#d58285" d="M 336.5,360.5 C 336.5,363.167 336.5,365.833 336.5,368.5C 341.695,368.179 346.695,368.513 351.5,369.5C 346.5,369.5 341.5,369.5 336.5,369.5C 336.802,372.059 336.468,374.393 335.5,376.5C 335.5,374.167 335.5,371.833 335.5,369.5C 335.19,366.287 335.523,363.287 336.5,360.5 Z"/></g>
<g><path style="opacity:1" fill="#fefcfc" d="M 307.5,383.5 C 310.572,383.183 313.572,383.516 316.5,384.5C 315.675,385.386 314.675,385.719 313.5,385.5C 313.5,391.5 313.5,397.5 313.5,403.5C 312.5,403.5 311.5,403.5 310.5,403.5C 310.5,397.833 310.5,392.167 310.5,386.5C 309.1,385.9 308.1,384.9 307.5,383.5 Z"/></g>
<g><path style="opacity:1" fill="#fbf2f2" d="M 318.5,383.5 C 319.5,383.5 320.5,383.5 321.5,383.5C 321.334,389.176 321.501,394.843 322,400.5C 323,401.833 324,401.833 325,400.5C 325.499,394.843 325.666,389.176 325.5,383.5C 326.5,383.5 327.5,383.5 328.5,383.5C 328.666,389.509 328.499,395.509 328,401.5C 325,405.5 322,405.5 319,401.5C 318.501,395.509 318.334,389.509 318.5,383.5 Z"/></g>
<g><path style="opacity:1" fill="#faf1f1" d="M 336.5,395.5 C 335.791,394.596 334.791,394.263 333.5,394.5C 333.5,397.5 333.5,400.5 333.5,403.5C 332.5,403.5 331.5,403.5 330.5,403.5C 330.5,396.833 330.5,390.167 330.5,383.5C 337.981,381.494 341.147,384.161 340,391.5C 338,392.5 338,393.5 340,394.5C 340.498,397.482 340.665,400.482 340.5,403.5C 339.5,403.5 338.5,403.5 337.5,403.5C 337.806,400.615 337.473,397.948 336.5,395.5 Z"/></g>
<g><path style="opacity:1" fill="#fcf8f8" d="M 348.5,391.5 C 348.461,392.756 348.961,393.756 350,394.5C 349.906,390.367 350.74,386.701 352.5,383.5C 352.5,390.167 352.5,396.833 352.5,403.5C 350.876,403.64 349.71,402.973 349,401.5C 348,397.5 347,393.5 346,389.5C 345.501,394.155 345.334,398.821 345.5,403.5C 344.5,403.5 343.5,403.5 342.5,403.5C 342.5,396.833 342.5,390.167 342.5,383.5C 344.167,383.5 345.833,383.5 347.5,383.5C 347.833,386.167 348.167,388.833 348.5,391.5 Z"/></g>
<g><path style="opacity:1" fill="#e0a3a6" d="M 352.5,383.5 C 350.74,386.701 349.906,390.367 350,394.5C 348.961,393.756 348.461,392.756 348.5,391.5C 349.477,388.713 349.81,385.713 349.5,382.5C 350.791,382.263 351.791,382.596 352.5,383.5 Z"/></g>
<g><path style="opacity:1" fill="#f8e8e8" d="M 357.5,383.5 C 359.167,383.5 360.833,383.5 362.5,383.5C 363.664,390.142 364.664,396.809 365.5,403.5C 364.167,403.5 362.833,403.5 361.5,403.5C 361.5,402.167 361.5,400.833 361.5,399.5C 360.167,399.5 358.833,399.5 357.5,399.5C 357.5,400.833 357.5,402.167 357.5,403.5C 356.5,403.5 355.5,403.5 354.5,403.5C 355.174,396.773 356.174,390.106 357.5,383.5 Z"/></g>
<g><path style="opacity:1" fill="#fbf3f4" d="M 367.5,383.5 C 370.448,383.223 373.281,383.556 376,384.5C 375.456,390.797 375.623,397.13 376.5,403.5C 375.5,403.5 374.5,403.5 373.5,403.5C 373.5,400.833 373.5,398.167 373.5,395.5C 372.5,395.5 371.5,395.5 370.5,395.5C 370.5,398.167 370.5,400.833 370.5,403.5C 369.5,403.5 368.5,403.5 367.5,403.5C 367.5,396.833 367.5,390.167 367.5,383.5 Z"/></g>
<g><path style="opacity:1" fill="#f8e9e9" d="M 381.5,382.5 C 383.936,382.317 386.103,382.984 388,384.5C 388.667,390.167 388.667,395.833 388,401.5C 384.527,405.717 381.527,405.384 379,400.5C 378.333,395.5 378.333,390.5 379,385.5C 380.045,384.627 380.878,383.627 381.5,382.5 Z"/></g>
<g><path style="opacity:1" fill="#fbf2f2" d="M 390.5,383.5 C 391.5,383.5 392.5,383.5 393.5,383.5C 393.334,389.176 393.501,394.843 394,400.5C 395,401.833 396,401.833 397,400.5C 397.499,394.843 397.666,389.176 397.5,383.5C 398.5,383.5 399.5,383.5 400.5,383.5C 400.666,389.509 400.499,395.509 400,401.5C 397,405.5 394,405.5 391,401.5C 390.501,395.509 390.334,389.509 390.5,383.5 Z"/></g>
<g><path style="opacity:1" fill="#fbf4f4" d="M 408.5,390.5 C 408.709,391.922 409.209,393.255 410,394.5C 409.906,390.367 410.74,386.701 412.5,383.5C 412.5,390.167 412.5,396.833 412.5,403.5C 411.178,403.67 410.011,403.337 409,402.5C 408,398.167 407,393.833 406,389.5C 405.501,394.155 405.334,398.821 405.5,403.5C 404.5,403.5 403.5,403.5 402.5,403.5C 402.5,396.833 402.5,390.167 402.5,383.5C 404.167,383.5 405.833,383.5 407.5,383.5C 407.448,385.903 407.781,388.236 408.5,390.5 Z"/></g>
<g><path style="opacity:1" fill="#da8f92" d="M 412.5,383.5 C 410.74,386.701 409.906,390.367 410,394.5C 409.209,393.255 408.709,391.922 408.5,390.5C 409.473,388.052 409.806,385.385 409.5,382.5C 410.791,382.263 411.791,382.596 412.5,383.5 Z"/></g>
<g><path style="opacity:1" fill="#f9eded" d="M 415.5,383.5 C 423.687,381.841 427.02,385.174 425.5,393.5C 427.02,401.826 423.687,405.159 415.5,403.5C 415.5,396.833 415.5,390.167 415.5,383.5 Z"/></g>
<g><path style="opacity:1" fill="#dc9598" d="M 307.5,383.5 C 308.1,384.9 309.1,385.9 310.5,386.5C 309.167,386.5 307.833,386.5 306.5,386.5C 306.263,385.209 306.596,384.209 307.5,383.5 Z"/></g>
<g><path style="opacity:1" fill="#d2787c" d="M 307.5,383.5 C 310.625,382.521 313.958,382.187 317.5,382.5C 317.5,383.833 317.5,385.167 317.5,386.5C 316.5,386.5 315.5,386.5 314.5,386.5C 314.822,392.358 314.489,398.025 313.5,403.5C 313.5,397.5 313.5,391.5 313.5,385.5C 314.675,385.719 315.675,385.386 316.5,384.5C 313.572,383.516 310.572,383.183 307.5,383.5 Z"/></g>
<g><path style="opacity:1" fill="#dd9b9d" d="M 336.5,386.5 C 335.351,386.791 334.684,387.624 334.5,389C 334.684,390.376 335.351,391.209 336.5,391.5C 335.791,392.404 334.791,392.737 333.5,392.5C 333.5,390.167 333.5,387.833 333.5,385.5C 334.791,385.263 335.791,385.596 336.5,386.5 Z"/></g>
<g><path style="opacity:1" fill="#b93035" d="M 336.5,386.5 C 336.5,388.167 336.5,389.833 336.5,391.5C 335.351,391.209 334.684,390.376 334.5,389C 334.684,387.624 335.351,386.791 336.5,386.5 Z"/></g>
<g><path style="opacity:1" fill="#bc373c" d="M 370.5,386.5 C 371.5,386.5 372.5,386.5 373.5,386.5C 373.5,388.167 373.5,389.833 373.5,391.5C 372.5,391.5 371.5,391.5 370.5,391.5C 370.5,389.833 370.5,388.167 370.5,386.5 Z"/></g>
<g><path style="opacity:1" fill="#bf4043" d="M 382.5,385.5 C 383.496,385.414 384.329,385.748 385,386.5C 385.667,391.167 385.667,395.833 385,400.5C 384.586,400.957 384.086,401.291 383.5,401.5C 382.505,396.208 382.172,390.875 382.5,385.5 Z"/></g>
<g><path style="opacity:1" fill="#bb3339" d="M 418.5,386.5 C 419.5,386.5 420.5,386.5 421.5,386.5C 421.5,391.167 421.5,395.833 421.5,400.5C 420.5,400.5 419.5,400.5 418.5,400.5C 418.5,395.833 418.5,391.167 418.5,386.5 Z"/></g>
<g><path style="opacity:1" fill="#c2484a" d="M 359.5,387.5 C 360.803,390.355 360.803,393.355 359.5,396.5C 358.679,393.554 358.679,390.554 359.5,387.5 Z"/></g>
<g><path style="opacity:1" fill="#d98e91" d="M 336.5,395.5 C 334.902,397.857 333.902,400.523 333.5,403.5C 333.5,400.5 333.5,397.5 333.5,394.5C 334.791,394.263 335.791,394.596 336.5,395.5 Z"/></g>
<g><path style="opacity:1" fill="#fbf3f3" d="M 317.5,414.5 C 316.167,414.5 314.833,414.5 313.5,414.5C 313.5,420.5 313.5,426.5 313.5,432.5C 312.5,432.5 311.5,432.5 310.5,432.5C 310.5,426.5 310.5,420.5 310.5,414.5C 309.5,414.5 308.5,414.5 307.5,414.5C 307.5,413.5 307.5,412.5 307.5,411.5C 310.833,411.5 314.167,411.5 317.5,411.5C 317.5,412.5 317.5,413.5 317.5,414.5 Z"/></g>
<g><path style="opacity:1" fill="#e3aaac" d="M 321.5,432.5 C 320.833,405.833 320.167,405.833 319.5,432.5C 318.509,425.687 318.175,418.687 318.5,411.5C 319.833,411.5 321.167,411.5 322.5,411.5C 322.825,418.687 322.491,425.687 321.5,432.5 Z"/></g>
<g><path style="opacity:1" fill="#fefffe" d="M 321.5,432.5 C 320.833,432.5 320.167,432.5 319.5,432.5C 320.167,405.833 320.833,405.833 321.5,432.5 Z"/></g>
<g><path style="opacity:1" fill="#faf0f1" d="M 333.5,412.5 C 334.833,412.5 336.167,412.5 337.5,412.5C 337.5,419.167 337.5,425.833 337.5,432.5C 336.833,432.5 336.167,432.5 335.5,432.5C 335.666,427.489 335.499,422.489 335,417.5C 333.991,419.025 333.491,420.692 333.5,422.5C 333.384,425.86 333.051,429.193 332.5,432.5C 331.5,432.5 330.5,432.5 329.5,432.5C 328.184,416.574 327.517,416.574 327.5,432.5C 326.5,432.5 325.5,432.5 324.5,432.5C 324.5,425.5 324.5,418.5 324.5,411.5C 326.167,411.5 327.833,411.5 329.5,411.5C 330.065,416.149 330.565,420.816 331,425.5C 331.429,420.953 332.262,416.619 333.5,412.5 Z"/></g>
<g><path style="opacity:1" fill="#da9194" d="M 333.5,412.5 C 334.919,411.549 336.585,411.216 338.5,411.5C 338.825,418.687 338.491,425.687 337.5,432.5C 337.5,425.833 337.5,419.167 337.5,412.5C 336.167,412.5 334.833,412.5 333.5,412.5 Z"/></g>
<g><path style="opacity:1" fill="#fbf2f3" d="M 340.5,411.5 C 343.5,411.5 346.5,411.5 349.5,411.5C 349.5,412.5 349.5,413.5 349.5,414.5C 347.5,414.5 345.5,414.5 343.5,414.5C 343.5,416.5 343.5,418.5 343.5,420.5C 345.167,420.5 346.833,420.5 348.5,420.5C 348.5,421.5 348.5,422.5 348.5,423.5C 346.833,423.5 345.167,423.5 343.5,423.5C 343.5,425.5 343.5,427.5 343.5,429.5C 345.5,429.5 347.5,429.5 349.5,429.5C 349.5,430.5 349.5,431.5 349.5,432.5C 346.5,432.5 343.5,432.5 340.5,432.5C 340.5,425.5 340.5,418.5 340.5,411.5 Z"/></g>
<g><path style="opacity:1" fill="#cf7175" d="M 317.5,414.5 C 316.791,415.404 315.791,415.737 314.5,415.5C 314.822,421.358 314.489,427.025 313.5,432.5C 313.5,426.5 313.5,420.5 313.5,414.5C 314.833,414.5 316.167,414.5 317.5,414.5 Z"/></g>
<g><path style="opacity:1" fill="#e5b3b6" d="M 335.5,432.5 C 334.833,429.167 334.167,425.833 333.5,422.5C 333.491,420.692 333.991,419.025 335,417.5C 335.499,422.489 335.666,427.489 335.5,432.5 Z"/></g>
</svg>
