<?xml version="1.0" encoding="UTF-8"?>
<!DOCTYPE svg PUBLIC "-//W3C//DTD SVG 1.1//EN" "http://www.w3.org/Graphics/SVG/1.1/DTD/svg11.dtd">
<svg xmlns="http://www.w3.org/2000/svg" version="1.1" width="504px" height="568px" style="shape-rendering:geometricPrecision; text-rendering:geometricPrecision; image-rendering:optimizeQuality; fill-rule:evenodd; clip-rule:evenodd" xmlns:xlink="http://www.w3.org/1999/xlink">
<g><path style="opacity:1" fill="#fefefe" d="M -0.5,-0.5 C 167.5,-0.5 335.5,-0.5 503.5,-0.5C 503.5,188.833 503.5,378.167 503.5,567.5C 335.5,567.5 167.5,567.5 -0.5,567.5C -0.5,378.167 -0.5,188.833 -0.5,-0.5 Z"/></g>
<g><path style="opacity:1" fill="#c4c4c4" d="M 378.5,418.5 C 379.006,423.523 379.673,428.523 380.5,433.5C 380.649,434.552 380.483,435.552 380,436.5C 376.928,439.402 374.095,442.402 371.5,445.5C 378.87,460.526 377.703,474.859 368,488.5C 366.394,491.872 365.228,495.372 364.5,499C 367.883,509.572 370.383,520.405 372,531.5C 377.09,542.274 380.257,553.608 381.5,565.5C 304.503,566.5 227.503,566.833 150.5,566.5C 151.207,555.802 152.207,545.135 153.5,534.5C 155.223,532.22 155.889,529.553 155.5,526.5C 158.146,510.803 160.646,495.136 163,479.5C 145.984,476.37 129.15,472.537 112.5,468C 104.18,464.206 99.6796,457.706 99,448.5C 97.8555,434.847 97.5222,421.18 98,407.5C 99.5699,394.908 101.737,382.408 104.5,370C 103.547,365.187 103.38,360.354 104,355.5C 106.946,349.929 110.612,344.929 115,340.5C 117.329,333.483 121.329,327.483 127,322.5C 127.513,312.273 129.18,302.273 132,292.5C 138.784,278.267 146.118,264.267 154,250.5C 156.039,248.126 158.372,246.126 161,244.5C 164.089,237.744 169.255,233.577 176.5,232C 179.145,228.015 182.812,225.681 187.5,225C 194.837,218.831 203.17,214.498 212.5,212C 214.657,210.088 216.991,208.421 219.5,207C 224.711,201.458 229.544,195.625 234,189.5C 233.935,181.23 232.268,173.23 229,165.5C 217.175,153.982 210.175,139.982 208,123.5C 207.003,117.539 206.337,111.539 206,105.5C 205.085,104.672 204.419,103.672 204,102.5C 203.527,97.7428 204.027,93.0761 205.5,88.5C 204.783,82.9654 203.45,77.632 201.5,72.5C 201.048,67.0019 200.381,61.6686 199.5,56.5C 196.975,39.7253 202.641,26.5586 216.5,17C 223.121,13.747 229.787,10.4136 236.5,7C 256.77,0.293595 276.104,2.29359 294.5,13C 300.757,16.9825 306.924,21.1492 313,25.5C 314.421,28.0094 316.088,30.3428 318,32.5C 320.271,45.4138 321.271,58.4138 321,71.5C 320.837,73.676 320.004,75.5093 318.5,77C 319.701,77.9025 320.535,79.0692 321,80.5C 322.891,87.4924 322.891,94.4924 321,101.5C 318.189,105.718 315.522,110.051 313,114.5C 311.494,116.174 309.661,117.174 307.5,117.5C 306.871,128.497 306.204,139.497 305.5,150.5C 305.129,155.554 306.296,160.221 309,164.5C 313.082,167.159 316.915,166.659 320.5,163C 322.134,162.506 323.801,162.34 325.5,162.5C 326.814,168.004 329.647,172.67 334,176.5C 333.315,183.632 336.148,188.798 342.5,192C 364.211,200.023 383.044,212.523 399,229.5C 402.307,236.751 405.307,244.084 408,251.5C 410.448,269.056 412.782,286.723 415,304.5C 415.667,309.5 415.667,314.5 415,319.5C 411.323,325.91 407.656,332.243 404,338.5C 398.333,354.5 392.667,370.5 387,386.5C 384.151,397.233 381.318,407.9 378.5,418.5 Z"/></g>
<g><path style="opacity:1" fill="#e0e0e0" d="M 199.5,56.5 C 200.381,61.6686 201.048,67.0019 201.5,72.5C 200.732,71.7375 200.232,70.7375 200,69.5C 199.501,65.1794 199.334,60.8461 199.5,56.5 Z"/></g>
<g><path style="opacity:1" fill="#d7d7d7" d="M 378.5,418.5 C 379.783,422.3 380.783,426.3 381.5,430.5C 381.48,431.726 381.147,432.726 380.5,433.5C 379.673,428.523 379.006,423.523 378.5,418.5 Z"/></g>
<g><path style="opacity:1" fill="#d9d9d9" d="M 155.5,526.5 C 155.889,529.553 155.223,532.22 153.5,534.5C 153.802,531.627 154.469,528.961 155.5,526.5 Z"/></g>
</svg>
