<?xml version="1.0" encoding="UTF-8"?>
<!DOCTYPE svg PUBLIC "-//W3C//DTD SVG 1.1//EN" "http://www.w3.org/Graphics/SVG/1.1/DTD/svg11.dtd">
<svg xmlns="http://www.w3.org/2000/svg" version="1.1" width="243px" height="195px" style="shape-rendering:geometricPrecision; text-rendering:geometricPrecision; image-rendering:optimizeQuality; fill-rule:evenodd; clip-rule:evenodd" xmlns:xlink="http://www.w3.org/1999/xlink">
<g><path style="opacity:1" fill="#fefefe" d="M -0.5,-0.5 C 80.5,-0.5 161.5,-0.5 242.5,-0.5C 242.5,64.5 242.5,129.5 242.5,194.5C 161.5,194.5 80.5,194.5 -0.5,194.5C -0.5,129.5 -0.5,64.5 -0.5,-0.5 Z"/></g>
<g><path style="opacity:1" fill="#020202" d="M 74.5,31.5 C 85.5202,31.1679 96.5202,31.5012 107.5,32.5C 98.5933,55.7228 89.5933,78.8895 80.5,102C 88.1594,102.5 95.8261,102.666 103.5,102.5C 103.5,123.5 103.5,144.5 103.5,165.5C 80.5,165.5 57.5,165.5 34.5,165.5C 34.3334,146.497 34.5001,127.497 35,108.5C 48.1797,82.8066 61.3463,57.14 74.5,31.5 Z"/></g>
<g><path style="opacity:1" fill="#010101" d="M 199.5,102.5 C 199.5,123.167 199.5,143.833 199.5,164.5C 176.833,164.5 154.167,164.5 131.5,164.5C 131.5,145.833 131.5,127.167 131.5,108.5C 144.051,83.0642 156.885,57.7309 170,32.5C 181.085,31.5126 192.252,31.1793 203.5,31.5C 194.927,55.1492 185.927,78.6492 176.5,102C 184.159,102.5 191.826,102.666 199.5,102.5 Z"/></g>
<g><path style="opacity:1" fill="#444444" d="M 199.5,102.5 C 200.497,123.327 200.831,144.327 200.5,165.5C 177.167,165.5 153.833,165.5 130.5,165.5C 130.17,146.326 130.503,127.326 131.5,108.5C 131.5,127.167 131.5,145.833 131.5,164.5C 154.167,164.5 176.833,164.5 199.5,164.5C 199.5,143.833 199.5,123.167 199.5,102.5 Z"/></g>
</svg>
