<?xml version="1.0" encoding="UTF-8"?>
<!DOCTYPE svg PUBLIC "-//W3C//DTD SVG 1.1//EN" "http://www.w3.org/Graphics/SVG/1.1/DTD/svg11.dtd">
<svg xmlns="http://www.w3.org/2000/svg" version="1.1" width="132px" height="135px" style="shape-rendering:geometricPrecision; text-rendering:geometricPrecision; image-rendering:optimizeQuality; fill-rule:evenodd; clip-rule:evenodd" xmlns:xlink="http://www.w3.org/1999/xlink">
<g><path style="opacity:1" fill="#fcfbfc" d="M -0.5,-0.5 C 43.5,-0.5 87.5,-0.5 131.5,-0.5C 131.5,12.1667 131.5,24.8333 131.5,37.5C 129.05,37.298 126.717,37.6314 124.5,38.5C 117.833,24.5 107.5,14.1667 93.5,7.5C 91.9674,5.75488 89.9674,4.75488 87.5,4.5C 87.1667,4.5 86.8333,4.5 86.5,4.5C 84.0329,2.53719 81.0329,1.37053 77.5,1C 69.5,0.333333 61.5,0.333333 53.5,1C 51.9419,1.21003 50.6085,1.71003 49.5,2.5C 30.0894,7.37653 15.7561,18.7099 6.5,36.5C 4.28298,37.3686 1.94965,37.702 -0.5,37.5C -0.5,24.8333 -0.5,12.1667 -0.5,-0.5 Z"/></g>
<g><path style="opacity:1" fill="#5b1c31" d="M 86.5,4.5 C 86.8333,4.5 87.1667,4.5 87.5,4.5C 89.0326,6.24512 91.0326,7.24512 93.5,7.5C 107.5,14.1667 117.833,24.5 124.5,38.5C 132.569,58.273 132.236,77.9397 123.5,97.5C 112.775,116.217 96.775,127.55 75.5,131.5C 68.5433,132.386 61.5433,132.72 54.5,132.5C 51.0023,131.187 47.3356,130.187 43.5,129.5C 41.9674,127.755 39.9674,126.755 37.5,126.5C 23.582,120.579 13.2487,110.913 6.5,97.5C 6.44312,96.391 6.10978,95.391 5.5,94.5C 4.35989,92.2198 3.19322,89.8864 2,87.5C 1.33919,81.995 0.505854,76.6617 -0.5,71.5C -0.5,65.1667 -0.5,58.8333 -0.5,52.5C 1.15319,47.9233 2.81985,43.2566 4.5,38.5C 5.83333,38.5 6.5,37.8333 6.5,36.5C 15.7561,18.7099 30.0894,7.37653 49.5,2.5C 62.0097,0.659182 74.343,1.32585 86.5,4.5 Z"/></g>
<g><path style="opacity:1" fill="#b8a6ad" d="M 86.5,4.5 C 74.343,1.32585 62.0097,0.659182 49.5,2.5C 50.6085,1.71003 51.9419,1.21003 53.5,1C 61.5,0.333333 69.5,0.333333 77.5,1C 81.0329,1.37053 84.0329,2.53719 86.5,4.5 Z"/></g>
<g><path style="opacity:1" fill="#ae929d" d="M 87.5,4.5 C 89.9674,4.75488 91.9674,5.75488 93.5,7.5C 91.0326,7.24512 89.0326,6.24512 87.5,4.5 Z"/></g>
<g><path style="opacity:1" fill="#cbb6be" d="M 48.5,6.5 C 50.1667,6.5 51.8333,6.5 53.5,6.5C 53.6399,8.12377 52.9733,9.29044 51.5,10C 52.448,10.4828 53.448,10.6495 54.5,10.5C 55.5918,15.1225 53.9252,16.9558 49.5,16C 49.8617,13.7345 49.195,11.5678 47.5,9.5C 47.685,8.41635 48.0183,7.41635 48.5,6.5 Z"/></g>
<g><path style="opacity:1" fill="#e0d3d8" d="M 76.5,15.5 C 76.5,14.1667 76.5,12.8333 76.5,11.5C 75.1667,11.5 73.8333,11.5 72.5,11.5C 72.5,12.5 72.5,13.5 72.5,14.5C 71.2749,13.8478 70.6083,12.6811 70.5,11C 70.0465,7.70724 71.3798,5.87391 74.5,5.5C 74.238,6.97782 74.5713,8.31116 75.5,9.5C 76.2807,8.26341 77.2807,7.26341 78.5,6.5C 78.8333,7.33333 79.1667,8.16667 79.5,9C 79.4562,11.8014 78.4562,13.968 76.5,15.5 Z"/></g>
<g><path style="opacity:1" fill="#dacbd1" d="M 60.5,4.5 C 63.2776,4.02166 65.2776,5.02166 66.5,7.5C 64.674,7.92016 62.674,7.92016 60.5,7.5C 60.5,9.16667 60.5,10.8333 60.5,12.5C 62.674,12.0798 64.674,12.0798 66.5,12.5C 63.7483,15.1345 60.9149,15.1345 58,12.5C 57.8333,11.5 57.6667,10.5 57.5,9.5C 57.7705,7.3074 58.7705,5.64073 60.5,4.5 Z"/></g>
<g><path style="opacity:1" fill="#a88492" d="M 76.5,15.5 C 75.8423,14.6016 75.1757,13.6016 74.5,12.5C 73.8182,13.2427 73.1515,13.9094 72.5,14.5C 72.5,13.5 72.5,12.5 72.5,11.5C 73.8333,11.5 75.1667,11.5 76.5,11.5C 76.5,12.8333 76.5,14.1667 76.5,15.5 Z"/></g>
<g><path style="opacity:1" fill="#d2bfc7" d="M 83.5,8.5 C 84.5,8.5 85.5,8.5 86.5,8.5C 86.2761,10.7867 85.6094,12.9534 84.5,15C 84.8333,15.5 85.1667,16 85.5,16.5C 86.782,14.8208 87.782,12.9874 88.5,11C 89.635,10.2506 90.635,10.4173 91.5,11.5C 90.3752,14.7814 88.5418,17.448 86,19.5C 83.5,19 82,17.5 81.5,15C 82.2741,12.8458 82.9408,10.6792 83.5,8.5 Z"/></g>
<g><path style="opacity:1" fill="#dbccd2" d="M 37.5,10.5 C 42.0832,9.34297 44.7499,11.0096 45.5,15.5C 44.4526,18.8653 42.1193,20.5319 38.5,20.5C 38.1931,17.7201 37.1931,15.2201 35.5,13C 36.0556,11.9889 36.7222,11.1556 37.5,10.5 Z"/></g>
<g><path style="opacity:1" fill="#6c3047" d="M 39.5,13.5 C 40.5,13.5 41.5,13.5 42.5,13.5C 42.762,14.9778 42.4287,16.3112 41.5,17.5C 39.8888,16.6798 39.2222,15.3464 39.5,13.5 Z"/></g>
<g><path style="opacity:1" fill="#f9f5f4" d="M 27.5,38.5 C 27.1667,38.5 26.8333,38.5 26.5,38.5C 26.5,37.8333 26.5,37.1667 26.5,36.5C 41.9502,18.5092 61.1169,13.5092 84,21.5C 91.6835,25.1841 98.1835,30.3508 103.5,37C 77.9967,37.1678 52.6634,37.6678 27.5,38.5 Z"/></g>
<g><path style="opacity:1" fill="#d9cad0" d="M 94.5,13.5 C 96.6449,13.7377 98.3115,14.7377 99.5,16.5C 97.1168,18.2674 94.9502,20.2674 93,22.5C 92.5,22.1667 92,21.8333 91.5,21.5C 93.0761,19.0207 94.0761,16.354 94.5,13.5 Z"/></g>
<g><path style="opacity:1" fill="#e4d9dd" d="M 35.5,20.5 C 34.4282,22.8398 32.7615,23.1731 30.5,21.5C 29.3347,22.8595 29.668,23.8595 31.5,24.5C 31.4827,26.0281 30.816,26.5281 29.5,26C 28.0716,23.8153 26.4049,21.8153 24.5,20C 26.3671,19.0808 28.3671,18.5808 30.5,18.5C 29.1207,17.1374 29.2874,16.1374 31,15.5C 32.9618,16.7615 34.4618,18.4281 35.5,20.5 Z"/></g>
<g><path style="opacity:1" fill="#dacbd1" d="M 101.5,18.5 C 108.096,20.6554 108.096,22.9887 101.5,25.5C 102.879,26.8626 102.713,27.8626 101,28.5C 99.2252,27.7297 97.7252,26.563 96.5,25C 98.5,23.6667 100.5,22.3333 102.5,21C 101.748,20.3292 101.414,19.4959 101.5,18.5 Z"/></g>
<g><path style="opacity:1" fill="#a88391" d="M 35.5,20.5 C 36.404,21.209 36.7373,22.209 36.5,23.5C 34.5853,23.2155 32.9187,23.5489 31.5,24.5C 29.668,23.8595 29.3347,22.8595 30.5,21.5C 32.7615,23.1731 34.4282,22.8398 35.5,20.5 Z"/></g>
<g><path style="opacity:1" fill="#dacbd1" d="M 17.5,25.5 C 20.8989,25.8073 24.0655,26.8073 27,28.5C 24.7672,29.984 23.2672,32.3174 22.5,35.5C 19.9187,32.5961 18.252,29.2628 17.5,25.5 Z"/></g>
<g><path style="opacity:1" fill="#ea8e49" d="M 50.5,27.5 C 51.6828,28.5045 53.0161,29.3378 54.5,30C 53.6634,31.0113 53.33,32.1779 53.5,33.5C 51.8561,33.2865 50.3561,33.6198 49,34.5C 48.7266,32.8988 48.2266,31.3988 47.5,30C 48.9423,29.6232 49.9423,28.7899 50.5,27.5 Z"/></g>
<g><path style="opacity:1" fill="#e88339" d="M 64.5,25.5 C 65.4511,27.118 66.7844,28.4513 68.5,29.5C 67.9017,30.7946 67.4017,32.1279 67,33.5C 65.6667,32.1667 64.3333,32.1667 63,33.5C 62.7265,31.6711 61.8932,30.1711 60.5,29C 62.9102,28.9428 64.2435,27.7761 64.5,25.5 Z"/></g>
<g><path style="opacity:1" fill="#e8853b" d="M 81.5,30.5 C 80.2597,31.6588 78.9264,32.6588 77.5,33.5C 74.5902,30.7717 75.0902,29.105 79,28.5C 80.2247,28.8623 81.3914,29.3623 82.5,30C 82.2716,30.3988 81.9382,30.5654 81.5,30.5 Z"/></g>
<g><path style="opacity:1" fill="#dbccd2" d="M 111.5,30.5 C 115.909,29.899 117.242,31.5657 115.5,35.5C 114.914,35.2907 114.414,34.9574 114,34.5C 113.671,38.0397 111.838,39.2064 108.5,38C 107.62,36.6439 107.286,35.1439 107.5,33.5C 108.859,34.0065 109.859,35.0065 110.5,36.5C 111.466,34.604 111.799,32.604 111.5,30.5 Z"/></g>
<g><path style="opacity:1" fill="#ecad7d" d="M 81.5,30.5 C 81.87,34.1859 80.5367,35.1859 77.5,33.5C 78.9264,32.6588 80.2597,31.6588 81.5,30.5 Z"/></g>
<g><path style="opacity:1" fill="#a47e8d" d="M 111.5,30.5 C 111.799,32.604 111.466,34.604 110.5,36.5C 109.859,35.0065 108.859,34.0065 107.5,33.5C 108.926,32.6588 110.26,31.6588 111.5,30.5 Z"/></g>
<g><path style="opacity:1" fill="#826b73" d="M 6.5,36.5 C 6.5,37.8333 5.83333,38.5 4.5,38.5C 2.83333,38.5 1.16667,38.5 -0.5,38.5C -0.5,38.1667 -0.5,37.8333 -0.5,37.5C 1.94965,37.702 4.28298,37.3686 6.5,36.5 Z"/></g>
<g><path style="opacity:1" fill="#dfd2d7" d="M 11.5,34.5 C 13.1992,34.3398 14.8659,34.5065 16.5,35C 17.5046,36.5067 18.838,37.6733 20.5,38.5C 19.91,39.7989 18.91,40.6322 17.5,41C 18.9928,42.1562 18.8261,42.9896 17,43.5C 14.7799,41.8069 12.2799,40.8069 9.5,40.5C 9.2525,38.1417 9.91917,36.1417 11.5,34.5 Z"/></g>
<g><path style="opacity:1" fill="#a07887" d="M 12.5,36.5 C 13.5,36.5 14.5,36.5 15.5,36.5C 15.5,37.5 15.5,38.5 15.5,39.5C 14.5,39.5 13.5,39.5 12.5,39.5C 12.5,38.5 12.5,37.5 12.5,36.5 Z"/></g>
<g><path style="opacity:1" fill="#2f0517" d="M -0.5,38.5 C 1.16667,38.5 2.83333,38.5 4.5,38.5C 2.81985,43.2566 1.15319,47.9233 -0.5,52.5C -0.5,47.8333 -0.5,43.1667 -0.5,38.5 Z"/></g>
<g><path style="opacity:1" fill="#320a1b" d="M 26.5,38.5 C 26.8333,38.5 27.1667,38.5 27.5,38.5C 53.1688,38.3334 78.8355,38.5 104.5,39C 108.257,42.4212 110.757,46.5879 112,51.5C 114.069,62.2029 113.902,72.8696 111.5,83.5C 109.392,87.4005 107.059,91.0672 104.5,94.5C 78.4979,94.6666 52.4979,94.5 26.5,94C 23.1014,88.9766 20.7681,83.4766 19.5,77.5C 19.2895,68.8 19.6228,60.1333 20.5,51.5C 21.2271,49.0462 22.2271,46.7128 23.5,44.5C 24.5,44.5 25.5,44.5 26.5,44.5C 26.5,46.5 26.5,48.5 26.5,50.5C 28.1667,50.5 29.8333,50.5 31.5,50.5C 31.1765,57.0221 31.5098,63.3554 32.5,69.5C 34.8333,69.5 37.1667,69.5 39.5,69.5C 42.9359,70.7815 46.2693,70.7815 49.5,69.5C 49.5,68.1667 49.5,66.8333 49.5,65.5C 52.8499,65.335 56.1832,65.5017 59.5,66C 60.3366,67.0113 60.67,68.1779 60.5,69.5C 58.369,70.3138 56.0356,70.8138 53.5,71C 52.9152,72.3024 52.2485,73.469 51.5,74.5C 50.5,73.8333 49.5,73.1667 48.5,72.5C 48.44,71.9569 48.1067,71.6236 47.5,71.5C 46.8302,73.2914 46.1635,74.9581 45.5,76.5C 45.0291,75.0992 44.3624,73.7658 43.5,72.5C 41.3786,74.0205 39.8786,76.0205 39,78.5C 38.5,78 38,77.5 37.5,77C 38.4061,75.3005 38.7394,73.4672 38.5,71.5C 36.8333,71.5 35.1667,71.5 33.5,71.5C 33.5474,77.8532 32.8808,78.0199 31.5,72C 30.2068,71.51 28.8734,71.3433 27.5,71.5C 27.5,74.1667 27.5,76.8333 27.5,79.5C 27.5,80.1667 27.5,80.8333 27.5,81.5C 27.5,84.1667 27.5,86.8333 27.5,89.5C 52.5,90.8333 77.5,90.8333 102.5,89.5C 102.5,86.8333 102.5,84.1667 102.5,81.5C 102.737,80.209 102.404,79.209 101.5,78.5C 100.448,78.6495 99.448,78.4828 98.5,78C 99.9557,76.2552 101.289,74.4219 102.5,72.5C 97.8804,71.5067 93.2137,71.1734 88.5,71.5C 88.5,73.8333 88.5,76.1667 88.5,78.5C 87.5,78.5 86.5,78.5 85.5,78.5C 85.5,76.5 85.5,74.5 85.5,72.5C 84.6522,71.375 83.6522,71.375 82.5,72.5C 81.5798,71.9326 81.2465,72.5992 81.5,74.5C 79.4458,74.6347 77.7791,73.968 76.5,72.5C 76.1667,72.5 75.8333,72.5 75.5,72.5C 75.5,72.1667 75.5,71.8333 75.5,71.5C 76.1667,70.8333 76.8333,70.1667 77.5,69.5C 78.2735,64.9714 78.9401,60.3047 79.5,55.5C 80.9131,52.3388 82.5797,49.3388 84.5,46.5C 85.1174,46.3893 85.6174,46.056 86,45.5C 86.4997,53.8267 86.6664,62.16 86.5,70.5C 92.0262,70.8214 97.3595,70.4881 102.5,69.5C 102.5,67.8333 102.5,66.1667 102.5,64.5C 100.052,63.5269 97.3854,63.1936 94.5,63.5C 94.5,62.1667 94.5,60.8333 94.5,59.5C 97.1667,59.5 99.8333,59.5 102.5,59.5C 102.5,57.5 102.5,55.5 102.5,53.5C 99.8333,53.5 97.1667,53.5 94.5,53.5C 94.5,52.1667 94.5,50.8333 94.5,49.5C 97.3854,49.8064 100.052,49.4731 102.5,48.5C 102.5,47.1667 102.5,45.8333 102.5,44.5C 94.1667,43.1667 85.8333,43.1667 77.5,44.5C 76.8333,45.8333 76.1667,47.1667 75.5,48.5C 73.9382,48.2671 72.6049,47.6005 71.5,46.5C 71.6716,45.5084 71.3382,44.8417 70.5,44.5C 68.0521,43.5269 65.3854,43.1936 62.5,43.5C 62.2627,44.791 62.596,45.791 63.5,46.5C 65.4967,49.8253 67.4967,53.1587 69.5,56.5C 69.6655,60.5138 69.4988,64.5138 69,68.5C 68.7216,67.5842 68.2216,66.9175 67.5,66.5C 65.2873,59.3067 62.6207,52.3067 59.5,45.5C 58.4855,44.2353 56.9855,43.5687 55,43.5C 53.2933,43.5085 51.7933,43.8418 50.5,44.5C 49.5448,46.7457 48.8782,49.079 48.5,51.5C 46.179,53.0897 45.179,55.4231 45.5,58.5C 44.2616,60.2143 43.595,62.2143 43.5,64.5C 42.2101,65.0577 41.3768,66.0577 41,67.5C 40.5006,61.8431 40.3339,56.1764 40.5,50.5C 41.8333,50.5 43.1667,50.5 44.5,50.5C 45.1174,50.3893 45.6174,50.056 46,49.5C 46.4966,47.1902 46.6633,44.8568 46.5,42.5C 39.4163,43.1255 32.7496,42.4589 26.5,40.5C 26.5,39.8333 26.5,39.1667 26.5,38.5 Z"/></g>
<g><path style="opacity:1" fill="#350e1f" d="M 131.5,38.5 C 131.5,42.1667 131.5,45.8333 131.5,49.5C 129.399,46.2034 128.065,42.5368 127.5,38.5C 128.833,38.5 130.167,38.5 131.5,38.5 Z"/></g>
<g><path style="opacity:1" fill="#e5dbdf" d="M 120.5,39.5 C 120.179,41.0481 119.179,41.7148 117.5,41.5C 117.5,42.5 117.5,43.5 117.5,44.5C 115.551,43.2753 114.218,43.942 113.5,46.5C 110.563,43.1348 111.23,40.6348 115.5,39C 117.387,38.2204 119.054,38.3871 120.5,39.5 Z"/></g>
<g><path style="opacity:1" fill="#5c3c49" d="M 26.5,40.5 C 32.7496,42.4589 39.4163,43.1255 46.5,42.5C 46.6633,44.8568 46.4966,47.1902 46,49.5C 45.6174,50.056 45.1174,50.3893 44.5,50.5C 44.5,48.1667 44.5,45.8333 44.5,43.5C 38.8333,43.5 33.1667,43.5 27.5,43.5C 27.5,45.5 27.5,47.5 27.5,49.5C 29.1667,49.5 30.8333,49.5 32.5,49.5C 32.5,56.1667 32.5,62.8333 32.5,69.5C 31.5098,63.3554 31.1765,57.0221 31.5,50.5C 29.8333,50.5 28.1667,50.5 26.5,50.5C 26.5,48.5 26.5,46.5 26.5,44.5C 25.5,44.5 24.5,44.5 23.5,44.5C 23.7376,42.5956 24.7376,41.2623 26.5,40.5 Z"/></g>
<g><path style="opacity:1" fill="#af9fa6" d="M 50.5,44.5 C 51.7933,43.8418 53.2933,43.5085 55,43.5C 56.9855,43.5687 58.4855,44.2353 59.5,45.5C 56.6085,44.5975 53.6085,44.2641 50.5,44.5 Z"/></g>
<g><path style="opacity:1" fill="#aa9aa0" d="M 70.5,44.5 C 67.6122,43.9898 65.2789,44.6565 63.5,46.5C 62.596,45.791 62.2627,44.791 62.5,43.5C 65.3854,43.1936 68.0521,43.5269 70.5,44.5 Z"/></g>
<g><path style="opacity:1" fill="#ba9da9" d="M 120.5,39.5 C 121.782,40.7082 121.782,42.0416 120.5,43.5C 119.914,43.2907 119.414,42.9574 119,42.5C 118.722,43.4158 118.222,44.0825 117.5,44.5C 117.5,43.5 117.5,42.5 117.5,41.5C 119.179,41.7148 120.179,41.0481 120.5,39.5 Z"/></g>
<g><path style="opacity:1" fill="#f3f1f2" d="M 44.5,50.5 C 43.1667,50.5 41.8333,50.5 40.5,50.5C 39.5098,56.6446 39.1765,62.9779 39.5,69.5C 37.1667,69.5 34.8333,69.5 32.5,69.5C 32.5,62.8333 32.5,56.1667 32.5,49.5C 30.8333,49.5 29.1667,49.5 27.5,49.5C 27.5,47.5 27.5,45.5 27.5,43.5C 33.1667,43.5 38.8333,43.5 44.5,43.5C 44.5,45.8333 44.5,48.1667 44.5,50.5 Z"/></g>
<g><path style="opacity:1" fill="#f1eeef" d="M 50.5,44.5 C 53.6085,44.2641 56.6085,44.5975 59.5,45.5C 62.6207,52.3067 65.2873,59.3067 67.5,66.5C 67.5,67.5 67.5,68.5 67.5,69.5C 65.1667,69.5 62.8333,69.5 60.5,69.5C 60.67,68.1779 60.3366,67.0113 59.5,66C 56.1832,65.5017 52.8499,65.335 49.5,65.5C 49.5,66.8333 49.5,68.1667 49.5,69.5C 47.1667,69.5 44.8333,69.5 42.5,69.5C 42.6287,67.7839 42.962,66.1172 43.5,64.5C 43.595,62.2143 44.2616,60.2143 45.5,58.5C 46.7362,56.351 47.7362,54.0177 48.5,51.5C 48.8782,49.079 49.5448,46.7457 50.5,44.5 Z"/></g>
<g><path style="opacity:1" fill="#f4f2f3" d="M 70.5,44.5 C 71.3382,44.8417 71.6716,45.5084 71.5,46.5C 71.5106,48.0174 72.1772,49.1841 73.5,50C 74.816,50.5281 75.4827,50.0281 75.5,48.5C 76.1667,47.1667 76.8333,45.8333 77.5,44.5C 80.3878,43.9898 82.7211,44.6565 84.5,46.5C 82.5797,49.3388 80.9131,52.3388 79.5,55.5C 78.8826,55.6107 78.3826,55.944 78,56.5C 77.501,60.8206 77.3343,65.1539 77.5,69.5C 75.1667,69.5 72.8333,69.5 70.5,69.5C 70.8182,64.9677 70.4849,60.6344 69.5,56.5C 67.4967,53.1587 65.4967,49.8253 63.5,46.5C 65.2789,44.6565 67.6122,43.9898 70.5,44.5 Z"/></g>
<g><path style="opacity:1" fill="#faf9fa" d="M 102.5,44.5 C 102.5,45.8333 102.5,47.1667 102.5,48.5C 99.5,48.5 96.5,48.5 93.5,48.5C 93.5,50.5 93.5,52.5 93.5,54.5C 96.1667,54.5 98.8333,54.5 101.5,54.5C 101.5,55.8333 101.5,57.1667 101.5,58.5C 98.8333,58.5 96.1667,58.5 93.5,58.5C 93.5,60.5 93.5,62.5 93.5,64.5C 96.5,64.5 99.5,64.5 102.5,64.5C 102.5,66.1667 102.5,67.8333 102.5,69.5C 97.5,69.5 92.5,69.5 87.5,69.5C 87.5,61.1667 87.5,52.8333 87.5,44.5C 92.5,44.5 97.5,44.5 102.5,44.5 Z"/></g>
<g><path style="opacity:1" fill="#a6949c" d="M 77.5,44.5 C 85.8333,43.1667 94.1667,43.1667 102.5,44.5C 97.5,44.5 92.5,44.5 87.5,44.5C 87.5,52.8333 87.5,61.1667 87.5,69.5C 92.5,69.5 97.5,69.5 102.5,69.5C 97.3595,70.4881 92.0262,70.8214 86.5,70.5C 86.6664,62.16 86.4997,53.8267 86,45.5C 85.6174,46.056 85.1174,46.3893 84.5,46.5C 82.7211,44.6565 80.3878,43.9898 77.5,44.5 Z"/></g>
<g><path style="opacity:1" fill="#8a747e" d="M 71.5,46.5 C 72.6049,47.6005 73.9382,48.2671 75.5,48.5C 75.4827,50.0281 74.816,50.5281 73.5,50C 72.1772,49.1841 71.5106,48.0174 71.5,46.5 Z"/></g>
<g><path style="opacity:1" fill="#beacb3" d="M 131.5,37.5 C 131.5,37.8333 131.5,38.1667 131.5,38.5C 130.167,38.5 128.833,38.5 127.5,38.5C 128.065,42.5368 129.399,46.2034 131.5,49.5C 131.5,60.1667 131.5,70.8333 131.5,81.5C 130.05,85.3434 128.717,89.3434 127.5,93.5C 128.689,94.4287 130.022,94.762 131.5,94.5C 131.5,94.8333 131.5,95.1667 131.5,95.5C 128.583,95.3651 125.916,96.0318 123.5,97.5C 132.236,77.9397 132.569,58.273 124.5,38.5C 126.717,37.6314 129.05,37.298 131.5,37.5 Z"/></g>
<g><path style="opacity:1" fill="#ddced4" d="M 6.5,44.5 C 9.48237,44.9629 12.4824,45.2962 15.5,45.5C 15.6802,52.5798 12.6802,54.2465 6.5,50.5C 5.76911,48.5988 5.76911,46.5988 6.5,44.5 Z"/></g>
<g><path style="opacity:1" fill="#5b3c49" d="M 40.5,50.5 C 40.3339,56.1764 40.5006,61.8431 41,67.5C 41.3768,66.0577 42.2101,65.0577 43.5,64.5C 42.962,66.1172 42.6287,67.7839 42.5,69.5C 44.8333,69.5 47.1667,69.5 49.5,69.5C 46.2693,70.7815 42.9359,70.7815 39.5,69.5C 39.1765,62.9779 39.5098,56.6446 40.5,50.5 Z"/></g>
<g><path style="opacity:1" fill="#dbcbd1" d="M 117.5,47.5 C 119.833,47.5 122.167,47.5 124.5,47.5C 124.756,49.7925 124.423,51.9592 123.5,54C 120.89,54.1472 118.556,54.9806 116.5,56.5C 115.17,54.6531 115.503,53.1531 117.5,52C 116.552,51.5172 115.552,51.3505 114.5,51.5C 114.5,50.5 114.5,49.5 114.5,48.5C 115.791,48.7373 116.791,48.404 117.5,47.5 Z"/></g>
<g><path style="opacity:1" fill="#98848c" d="M 55.5,53.5 C 54.8333,53.8333 54.1667,54.1667 53.5,54.5C 54.032,51.5404 54.6987,51.2071 55.5,53.5 Z"/></g>
<g><path style="opacity:1" fill="#aa9aa1" d="M 102.5,48.5 C 100.052,49.4731 97.3854,49.8064 94.5,49.5C 94.5,50.8333 94.5,52.1667 94.5,53.5C 97.1667,53.5 99.8333,53.5 102.5,53.5C 102.5,55.5 102.5,57.5 102.5,59.5C 99.8333,59.5 97.1667,59.5 94.5,59.5C 94.5,60.8333 94.5,62.1667 94.5,63.5C 97.3854,63.1936 100.052,63.5269 102.5,64.5C 99.5,64.5 96.5,64.5 93.5,64.5C 93.5,62.5 93.5,60.5 93.5,58.5C 96.1667,58.5 98.8333,58.5 101.5,58.5C 101.5,57.1667 101.5,55.8333 101.5,54.5C 98.8333,54.5 96.1667,54.5 93.5,54.5C 93.5,52.5 93.5,50.5 93.5,48.5C 96.5,48.5 99.5,48.5 102.5,48.5 Z"/></g>
<g><path style="opacity:1" fill="#a08d95" d="M 48.5,51.5 C 47.7362,54.0177 46.7362,56.351 45.5,58.5C 45.179,55.4231 46.179,53.0897 48.5,51.5 Z"/></g>
<g><path style="opacity:1" fill="#340d1e" d="M 55.5,53.5 C 55.8333,55.5 56.1667,57.5 56.5,59.5C 55.5,59.5 54.5,59.5 53.5,59.5C 53.5,58.1667 53.5,56.8333 53.5,55.5C 53.5,55.1667 53.5,54.8333 53.5,54.5C 54.1667,54.1667 54.8333,53.8333 55.5,53.5 Z"/></g>
<g><path style="opacity:1" fill="#826a75" d="M 79.5,55.5 C 78.9401,60.3047 78.2735,64.9714 77.5,69.5C 77.3343,65.1539 77.501,60.8206 78,56.5C 78.3826,55.944 78.8826,55.6107 79.5,55.5 Z"/></g>
<g><path style="opacity:1" fill="#7c626d" d="M 53.5,55.5 C 53.5,56.8333 53.5,58.1667 53.5,59.5C 54.5,59.5 55.5,59.5 56.5,59.5C 55.4324,60.4345 54.099,60.7678 52.5,60.5C 52.2155,58.5853 52.5489,56.9187 53.5,55.5 Z"/></g>
<g><path style="opacity:1" fill="#d1bdc5" d="M 123.5,57.5 C 124.675,57.281 125.675,57.6143 126.5,58.5C 125.221,60.1461 123.555,61.3128 121.5,62C 123.25,63.3186 125.25,63.8186 127.5,63.5C 127.5,64.5 127.5,65.5 127.5,66.5C 124.123,66.0405 120.789,65.3739 117.5,64.5C 117.343,63.1266 117.51,61.7932 118,60.5C 119.876,59.3913 121.709,58.3913 123.5,57.5 Z"/></g>
<g><path style="opacity:1" fill="#d6c5cc" d="M 2.5,60.5 C 4.12377,60.3601 5.29044,61.0267 6,62.5C 6.30762,61.6919 6.80762,61.0253 7.5,60.5C 8.44778,63.715 9.78112,64.0484 11.5,61.5C 12.4519,63.0453 12.7852,64.712 12.5,66.5C 9.16667,66.5 5.83333,66.5 2.5,66.5C 2.5,64.5 2.5,62.5 2.5,60.5 Z"/></g>
<g><path style="opacity:1" fill="#502e3c" d="M 20.5,51.5 C 19.6228,60.1333 19.2895,68.8 19.5,77.5C 16.6913,68.7235 17.0246,60.0568 20.5,51.5 Z"/></g>
<g><path style="opacity:1" fill="#ece5e8" d="M 12.5,73.5 C 10.7376,73.3573 9.07092,73.6906 7.5,74.5C 6.81815,73.7573 6.15149,73.0906 5.5,72.5C 4.32496,72.719 3.32496,72.3857 2.5,71.5C 3,71.1667 3.5,70.8333 4,70.5C 7.33028,70.7208 10.1636,71.7208 12.5,73.5 Z"/></g>
<g><path style="opacity:1" fill="#a39299" d="M 101.5,78.5 C 99.9652,79.7879 98.2985,79.7879 96.5,78.5C 97.9501,77.1502 98.6168,75.4835 98.5,73.5C 97.1667,73.5 95.8333,73.5 94.5,73.5C 94.1136,81.3981 93.1136,81.3981 91.5,73.5C 91.0358,75.9749 90.0358,77.9749 88.5,79.5C 87.1667,79.5 85.8333,79.5 84.5,79.5C 84.1984,76.9407 84.5318,74.6074 85.5,72.5C 85.5,74.5 85.5,76.5 85.5,78.5C 86.5,78.5 87.5,78.5 88.5,78.5C 88.5,76.1667 88.5,73.8333 88.5,71.5C 93.2137,71.1734 97.8804,71.5067 102.5,72.5C 101.289,74.4219 99.9557,76.2552 98.5,78C 99.448,78.4828 100.448,78.6495 101.5,78.5 Z"/></g>
<g><path style="opacity:1" fill="#ceb9c1" d="M 117.5,69.5 C 120.833,69.5 124.167,69.5 127.5,69.5C 127.5,70.5 127.5,71.5 127.5,72.5C 124.167,72.5 120.833,72.5 117.5,72.5C 117.5,71.5 117.5,70.5 117.5,69.5 Z"/></g>
<g><path style="opacity:1" fill="#765c67" d="M 48.5,72.5 C 47.8365,74.0419 47.1698,75.7086 46.5,77.5C 45.8933,77.3764 45.56,77.0431 45.5,76.5C 46.1635,74.9581 46.8302,73.2914 47.5,71.5C 48.1067,71.6236 48.44,71.9569 48.5,72.5 Z"/></g>
<g><path style="opacity:1" fill="#b7a9af" d="M 45.5,76.5 C 45.56,77.0431 45.8933,77.3764 46.5,77.5C 47.1698,75.7086 47.8365,74.0419 48.5,72.5C 49.5,73.1667 50.5,73.8333 51.5,74.5C 51.56,75.0431 51.8933,75.3764 52.5,75.5C 53.2508,74.624 53.7508,73.624 54,72.5C 54.4966,74.8098 54.6633,77.1432 54.5,79.5C 54.1667,79.5 53.8333,79.5 53.5,79.5C 52.2058,78.7101 51.0391,77.7101 50,76.5C 49.7679,77.7375 49.2679,78.7375 48.5,79.5C 41.4181,79.4371 34.4181,79.4371 27.5,79.5C 27.5,76.8333 27.5,74.1667 27.5,71.5C 28.8734,71.3433 30.2068,71.51 31.5,72C 32.8808,78.0199 33.5474,77.8532 33.5,71.5C 35.1667,71.5 36.8333,71.5 38.5,71.5C 38.7394,73.4672 38.4061,75.3005 37.5,77C 38,77.5 38.5,78 39,78.5C 39.8786,76.0205 41.3786,74.0205 43.5,72.5C 44.3624,73.7658 45.0291,75.0992 45.5,76.5 Z"/></g>
<g><path style="opacity:1" fill="#533240" d="M 69.5,56.5 C 70.4849,60.6344 70.8182,64.9677 70.5,69.5C 72.8333,69.5 75.1667,69.5 77.5,69.5C 76.8333,70.1667 76.1667,70.8333 75.5,71.5C 72.6798,71.087 70.6798,72.087 69.5,74.5C 68.8333,74.8333 68.1667,75.1667 67.5,75.5C 64.8753,74.5343 64.8753,73.5343 67.5,72.5C 67,72.1667 66.5,71.8333 66,71.5C 62.5456,72.2726 59.0456,72.2726 55.5,71.5C 55.1936,74.3854 55.5269,77.0521 56.5,79.5C 55.8333,80.8333 55.1667,80.8333 54.5,79.5C 54.6633,77.1432 54.4966,74.8098 54,72.5C 53.7508,73.624 53.2508,74.624 52.5,75.5C 51.8933,75.3764 51.56,75.0431 51.5,74.5C 52.2485,73.469 52.9152,72.3024 53.5,71C 56.0356,70.8138 58.369,70.3138 60.5,69.5C 62.8333,69.5 65.1667,69.5 67.5,69.5C 67.5,68.5 67.5,67.5 67.5,66.5C 68.2216,66.9175 68.7216,67.5842 69,68.5C 69.4988,64.5138 69.6655,60.5138 69.5,56.5 Z"/></g>
<g><path style="opacity:1" fill="#ab9aa2" d="M 67.5,75.5 C 67.5,76.8333 67.5,78.1667 67.5,79.5C 63.1074,79.5432 62.7741,79.0432 66.5,78C 64.1003,74.416 62.4336,74.7494 61.5,79C 59.8659,79.4935 58.1992,79.6602 56.5,79.5C 55.5269,77.0521 55.1936,74.3854 55.5,71.5C 59.0456,72.2726 62.5456,72.2726 66,71.5C 66.5,71.8333 67,72.1667 67.5,72.5C 64.8753,73.5343 64.8753,74.5343 67.5,75.5 Z"/></g>
<g><path style="opacity:1" fill="#bb9ea9" d="M 5.5,72.5 C 6.15149,73.0906 6.81815,73.7573 7.5,74.5C 9.07092,73.6906 10.7376,73.3573 12.5,73.5C 9.27651,75.0209 5.94317,76.3543 2.5,77.5C 2.72145,75.3364 3.72145,73.6697 5.5,72.5 Z"/></g>
<g><path style="opacity:1" fill="#492634" d="M 57.5,73.5 C 58.5,73.5 59.5,73.5 60.5,73.5C 60.5,75.1667 60.5,76.8333 60.5,78.5C 59.5,78.5 58.5,78.5 57.5,78.5C 57.5,76.8333 57.5,75.1667 57.5,73.5 Z"/></g>
<g><path style="opacity:1" fill="#3f1929" d="M 74.5,73.5 C 75.8333,75.1667 75.8333,76.8333 74.5,78.5C 70.8388,78.6499 69.8388,77.1499 71.5,74C 72.448,73.5172 73.448,73.3505 74.5,73.5 Z"/></g>
<g><path style="opacity:1" fill="#c8bec3" d="M 82.5,72.5 C 82.6633,74.8568 82.4966,77.1902 82,79.5C 81.5172,78.552 81.3505,77.552 81.5,76.5C 80.1667,76.5 78.8333,76.5 77.5,76.5C 77.6495,77.552 77.4828,78.552 77,79.5C 76.5034,77.1902 76.3367,74.8568 76.5,72.5C 77.7791,73.968 79.4458,74.6347 81.5,74.5C 81.2465,72.5992 81.5798,71.9326 82.5,72.5 Z"/></g>
<g><path style="opacity:1" fill="#694b57" d="M 28.5,76.5 C 29.675,76.281 30.675,76.6143 31.5,77.5C 29.9483,78.7979 28.9483,78.4646 28.5,76.5 Z"/></g>
<g><path style="opacity:1" fill="#350f1f" d="M 53.5,79.5 C 51.8333,80.8333 50.1667,80.8333 48.5,79.5C 49.2679,78.7375 49.7679,77.7375 50,76.5C 51.0391,77.7101 52.2058,78.7101 53.5,79.5 Z"/></g>
<g><path style="opacity:1" fill="#bfb2b8" d="M 75.5,71.5 C 75.5,71.8333 75.5,72.1667 75.5,72.5C 75.5,73.1667 75.1667,73.5 74.5,73.5C 73.448,73.3505 72.448,73.5172 71.5,74C 69.8388,77.1499 70.8388,78.6499 74.5,78.5C 74.0766,79.6299 72.7432,79.7966 70.5,79C 69.6198,77.6439 69.2865,76.1439 69.5,74.5C 70.6798,72.087 72.6798,71.087 75.5,71.5 Z"/></g>
<g><path style="opacity:1" fill="#e0d3d9" d="M 14.5,83.5 C 12.0122,85.3878 9.01215,86.0545 5.5,85.5C 6.34535,81.6472 8.67868,78.9805 12.5,77.5C 13.1687,79.6309 13.8354,81.6309 14.5,83.5 Z"/></g>
<g><path style="opacity:1" fill="#6c4f5b" d="M 85.5,72.5 C 84.5318,74.6074 84.1984,76.9407 84.5,79.5C 85.8333,79.5 87.1667,79.5 88.5,79.5C 88.5,80.1667 88.5,80.8333 88.5,81.5C 68.1667,81.5 47.8333,81.5 27.5,81.5C 27.5,80.8333 27.5,80.1667 27.5,79.5C 34.4181,79.4371 41.4181,79.4371 48.5,79.5C 50.1667,80.8333 51.8333,80.8333 53.5,79.5C 53.8333,79.5 54.1667,79.5 54.5,79.5C 55.1667,80.8333 55.8333,80.8333 56.5,79.5C 58.1992,79.6602 59.8659,79.4935 61.5,79C 62.4336,74.7494 64.1003,74.416 66.5,78C 62.7741,79.0432 63.1074,79.5432 67.5,79.5C 67.5,78.1667 67.5,76.8333 67.5,75.5C 68.1667,75.1667 68.8333,74.8333 69.5,74.5C 69.2865,76.1439 69.6198,77.6439 70.5,79C 72.7432,79.7966 74.0766,79.6299 74.5,78.5C 75.8333,76.8333 75.8333,75.1667 74.5,73.5C 75.1667,73.5 75.5,73.1667 75.5,72.5C 75.8333,72.5 76.1667,72.5 76.5,72.5C 76.3367,74.8568 76.5034,77.1902 77,79.5C 77.4828,78.552 77.6495,77.552 77.5,76.5C 78.8333,76.5 80.1667,76.5 81.5,76.5C 81.3505,77.552 81.5172,78.552 82,79.5C 82.4966,77.1902 82.6633,74.8568 82.5,72.5C 83.6522,71.375 84.6522,71.375 85.5,72.5 Z"/></g>
<g><path style="opacity:1" fill="#583845" d="M 101.5,78.5 C 102.404,79.209 102.737,80.209 102.5,81.5C 100.5,81.5 98.5,81.5 96.5,81.5C 95.8333,81.5 95.1667,81.5 94.5,81.5C 93.1667,81.5 91.8333,81.5 90.5,81.5C 89.8333,81.5 89.1667,81.5 88.5,81.5C 88.5,80.8333 88.5,80.1667 88.5,79.5C 90.0358,77.9749 91.0358,75.9749 91.5,73.5C 93.1136,81.3981 94.1136,81.3981 94.5,73.5C 95.8333,73.5 97.1667,73.5 98.5,73.5C 98.6168,75.4835 97.9501,77.1502 96.5,78.5C 98.2985,79.7879 99.9652,79.7879 101.5,78.5 Z"/></g>
<g><path style="opacity:1" fill="#d9c9d0" d="M 117.5,75.5 C 125.553,75.0218 127.387,78.0218 123,84.5C 122.5,84.1667 122,83.8333 121.5,83.5C 123.005,82.1585 123.672,80.4918 123.5,78.5C 121.833,78.5 120.167,78.5 118.5,78.5C 118.662,80.5273 118.495,82.5273 118,84.5C 114.954,81.7397 114.788,78.7397 117.5,75.5 Z"/></g>
<g><path style="opacity:1" fill="#330418" d="M -0.5,71.5 C 0.505854,76.6617 1.33919,81.995 2,87.5C 3.19322,89.8864 4.35989,92.2198 5.5,94.5C 3.5,94.5 1.5,94.5 -0.5,94.5C -0.5,86.8333 -0.5,79.1667 -0.5,71.5 Z"/></g>
<g><path style="opacity:1" fill="#f1eeef" d="M 27.5,81.5 C 47.8333,81.5 68.1667,81.5 88.5,81.5C 88.5,84.1667 88.5,86.8333 88.5,89.5C 68.1667,89.5 47.8333,89.5 27.5,89.5C 27.5,86.8333 27.5,84.1667 27.5,81.5 Z"/></g>
<g><path style="opacity:1" fill="#98848d" d="M 88.5,81.5 C 89.1667,81.5 89.8333,81.5 90.5,81.5C 90.5,84.1667 90.5,86.8333 90.5,89.5C 89.8333,89.5 89.1667,89.5 88.5,89.5C 88.5,86.8333 88.5,84.1667 88.5,81.5 Z"/></g>
<g><path style="opacity:1" fill="#f4f2f3" d="M 90.5,81.5 C 91.8333,81.5 93.1667,81.5 94.5,81.5C 93.6295,84.1123 92.9628,86.779 92.5,89.5C 91.8333,89.5 91.1667,89.5 90.5,89.5C 90.5,86.8333 90.5,84.1667 90.5,81.5 Z"/></g>
<g><path style="opacity:1" fill="#e3dee1" d="M 96.5,81.5 C 98.5,81.5 100.5,81.5 102.5,81.5C 102.5,84.1667 102.5,86.8333 102.5,89.5C 101.167,89.5 99.8333,89.5 98.5,89.5C 98.9465,86.9899 98.2798,84.9899 96.5,83.5C 96.5,82.8333 96.5,82.1667 96.5,81.5 Z"/></g>
<g><path style="opacity:1" fill="#a27c8b" d="M 14.5,83.5 C 15.404,84.209 15.7373,85.209 15.5,86.5C 11.9581,86.8128 8.62482,86.4794 5.5,85.5C 9.01215,86.0545 12.0122,85.3878 14.5,83.5 Z"/></g>
<g><path style="opacity:1" fill="#99868e" d="M 47.5,83.5 C 48.5,83.5 49.5,83.5 50.5,83.5C 50.6602,85.1992 50.4935,86.8659 50,88.5C 48.1079,87.3826 47.2746,85.7159 47.5,83.5 Z"/></g>
<g><path style="opacity:1" fill="#b3a4aa" d="M 29.5,83.5 C 30.5,83.5 31.5,83.5 32.5,83.5C 32.5,85.1667 32.5,86.8333 32.5,88.5C 31.5,88.5 30.5,88.5 29.5,88.5C 29.5,86.8333 29.5,85.1667 29.5,83.5 Z"/></g>
<g><path style="opacity:1" fill="#ae9fa5" d="M 56.5,83.5 C 57.4584,83.9528 58.2917,84.6195 59,85.5C 59.3333,84.8333 59.6667,84.1667 60,83.5C 60.624,85.4645 60.124,87.1311 58.5,88.5C 57.0499,87.1502 56.3832,85.4835 56.5,83.5 Z"/></g>
<g><path style="opacity:1" fill="#bbadb3" d="M 73.5,83.5 C 74.8734,83.3433 76.2068,83.51 77.5,84C 74.8333,85.3333 74.8333,86.6667 77.5,88C 73.0774,89.0814 71.7441,87.5814 73.5,83.5 Z"/></g>
<g><path style="opacity:1" fill="#ad9da4" d="M 82.5,83.5 C 83.5,83.5 84.5,83.5 85.5,83.5C 85.5,85.1667 85.5,86.8333 85.5,88.5C 84.5,88.5 83.5,88.5 82.5,88.5C 82.5,86.8333 82.5,85.1667 82.5,83.5 Z"/></g>
<g><path style="opacity:1" fill="#9c8891" d="M 38.5,83.5 C 39.6491,83.7911 40.3158,84.6244 40.5,86C 40.1667,86.8333 39.8333,87.6667 39.5,88.5C 38.5481,86.9547 38.2148,85.288 38.5,83.5 Z"/></g>
<g><path style="opacity:1" fill="#391323" d="M 131.5,81.5 C 131.5,85.8333 131.5,90.1667 131.5,94.5C 130.022,94.762 128.689,94.4287 127.5,93.5C 128.717,89.3434 130.05,85.3434 131.5,81.5 Z"/></g>
<g><path style="opacity:1" fill="#ab9ba2" d="M 94.5,81.5 C 95.1667,81.5 95.8333,81.5 96.5,81.5C 96.5,82.1667 96.5,82.8333 96.5,83.5C 94.5241,84.4271 94.1908,85.7605 95.5,87.5C 97.2141,86.3915 97.8808,87.0582 97.5,89.5C 95.8333,89.5 94.1667,89.5 92.5,89.5C 92.9628,86.779 93.6295,84.1123 94.5,81.5 Z"/></g>
<g><path style="opacity:1" fill="#7c626d" d="M 96.5,83.5 C 98.2798,84.9899 98.9465,86.9899 98.5,89.5C 99.8333,89.5 101.167,89.5 102.5,89.5C 77.5,90.8333 52.5,90.8333 27.5,89.5C 47.8333,89.5 68.1667,89.5 88.5,89.5C 89.1667,89.5 89.8333,89.5 90.5,89.5C 91.1667,89.5 91.8333,89.5 92.5,89.5C 94.1667,89.5 95.8333,89.5 97.5,89.5C 97.8808,87.0582 97.2141,86.3915 95.5,87.5C 94.1908,85.7605 94.5241,84.4271 96.5,83.5 Z"/></g>
<g><path style="opacity:1" fill="#d4c2c9" d="M 14.5,89.5 C 15.5,89.5 16.5,89.5 17.5,89.5C 17.5,90.5 17.5,91.5 17.5,92.5C 14.4148,92.542 12.0814,93.8753 10.5,96.5C 9.04988,95.1502 8.38321,93.4835 8.5,91.5C 10.7857,91.405 12.7857,90.7384 14.5,89.5 Z"/></g>
<g><path style="opacity:1" fill="#8f6173" d="M 112.5,89.5 C 113.999,89.9599 114.999,91.2933 115.5,93.5C 114.292,92.7659 112.959,92.4326 111.5,92.5C 111.263,91.209 111.596,90.209 112.5,89.5 Z"/></g>
<g><path style="opacity:1" fill="#dcced4" d="M 115.5,93.5 C 114.999,91.2933 113.999,89.9599 112.5,89.5C 112.62,88.4138 113.287,87.7472 114.5,87.5C 117.13,88.3779 119.797,89.0445 122.5,89.5C 122.543,93.9287 121.043,94.9287 118,92.5C 117.329,93.2524 116.496,93.5858 115.5,93.5 Z"/></g>
<g><path style="opacity:1" fill="#b9a8ae" d="M -0.5,95.5 C -0.5,95.1667 -0.5,94.8333 -0.5,94.5C 1.5,94.5 3.5,94.5 5.5,94.5C 6.10978,95.391 6.44312,96.391 6.5,97.5C 4.52135,95.8325 2.18802,95.1658 -0.5,95.5 Z"/></g>
<g><path style="opacity:1" fill="#bfadb2" d="M 26.5,36.5 C 26.5,37.1667 26.5,37.8333 26.5,38.5C 26.5,39.1667 26.5,39.8333 26.5,40.5C 24.7376,41.2623 23.7376,42.5956 23.5,44.5C 22.2271,46.7128 21.2271,49.0462 20.5,51.5C 17.0246,60.0568 16.6913,68.7235 19.5,77.5C 20.7681,83.4766 23.1014,88.9766 26.5,94C 52.4979,94.5 78.4979,94.6666 104.5,94.5C 104.672,95.4916 104.338,96.1583 103.5,96.5C 99.5139,95.8343 95.3472,95.501 91,95.5C 86.4428,95.5085 82.2762,96.1752 78.5,97.5C 77.8333,97.1667 77.1667,96.8333 76.5,96.5C 72.7016,95.5166 68.7016,95.1832 64.5,95.5C 64.5,96.5 64.5,97.5 64.5,98.5C 63.5,97.1667 62.5,97.1667 61.5,98.5C 61.5,97.5 61.5,96.5 61.5,95.5C 49.6547,95.1717 37.988,95.5051 26.5,96.5C 14.4027,80.9217 12.2361,63.9217 20,45.5C 22.1882,42.4328 24.3548,39.4328 26.5,36.5 Z"/></g>
<g><path style="opacity:1" fill="#fbfafa" d="M -0.5,95.5 C 2.18802,95.1658 4.52135,95.8325 6.5,97.5C 13.2487,110.913 23.582,120.579 37.5,126.5C 39.0326,128.245 41.0326,129.245 43.5,129.5C 47.3356,130.187 51.0023,131.187 54.5,132.5C 60.987,133.654 67.6536,133.821 74.5,133C 75.056,132.617 75.3893,132.117 75.5,131.5C 96.775,127.55 112.775,116.217 123.5,97.5C 125.916,96.0318 128.583,95.3651 131.5,95.5C 131.5,108.5 131.5,121.5 131.5,134.5C 87.5,134.5 43.5,134.5 -0.5,134.5C -0.5,121.5 -0.5,108.5 -0.5,95.5 Z"/></g>
<g><path style="opacity:1" fill="#f9f6f5" d="M 61.5,98.5 C 61.0825,99.2216 60.4158,99.7216 59.5,100C 60.2266,101.399 60.7266,102.899 61,104.5C 62.3333,103.167 63.6667,103.167 65,104.5C 65.2735,102.671 66.1068,101.171 67.5,100C 66.2625,99.7679 65.2625,99.2679 64.5,98.5C 64.5,97.5 64.5,96.5 64.5,95.5C 68.7016,95.1832 72.7016,95.5166 76.5,96.5C 75.9423,97.7899 74.9423,98.6232 73.5,99C 74.2266,100.399 74.7266,101.899 75,103.5C 76.1131,102.289 77.2798,102.289 78.5,103.5C 79.2436,102.009 79.9103,100.509 80.5,99C 79.5842,98.7216 78.9175,98.2216 78.5,97.5C 82.2762,96.1752 86.4428,95.5085 91,95.5C 95.3472,95.501 99.5139,95.8343 103.5,96.5C 99.0222,102.648 93.3555,107.314 86.5,110.5C 84.0326,110.755 82.0326,111.755 80.5,113.5C 73.2688,115.112 65.9355,115.779 58.5,115.5C 58.0296,114.307 57.0296,113.64 55.5,113.5C 52.8599,112.905 50.1933,112.572 47.5,112.5C 38.7733,109.441 31.7733,104.108 26.5,96.5C 37.988,95.5051 49.6547,95.1717 61.5,95.5C 61.5,96.5 61.5,97.5 61.5,98.5 Z"/></g>
<g><path style="opacity:1" fill="#e98840" d="M 48.5,96.5 C 49.6828,97.5045 51.0161,98.3378 52.5,99C 51.6634,100.011 51.33,101.178 51.5,102.5C 50.1667,102.5 48.8333,102.5 47.5,102.5C 47.6399,100.876 46.9733,99.7096 45.5,99C 47.1193,98.7645 48.1193,97.9311 48.5,96.5 Z"/></g>
<g><path style="opacity:1" fill="#ea8f4b" d="M 76.5,96.5 C 77.1667,96.8333 77.8333,97.1667 78.5,97.5C 78.9175,98.2216 79.5842,98.7216 80.5,99C 79.9103,100.509 79.2436,102.009 78.5,103.5C 77.2798,102.289 76.1131,102.289 75,103.5C 74.7266,101.899 74.2266,100.399 73.5,99C 74.9423,98.6232 75.9423,97.7899 76.5,96.5 Z"/></g>
<g><path style="opacity:1" fill="#e8853a" d="M 64.5,98.5 C 65.2625,99.2679 66.2625,99.7679 67.5,100C 66.1068,101.171 65.2735,102.671 65,104.5C 63.6667,103.167 62.3333,103.167 61,104.5C 60.7266,102.899 60.2266,101.399 59.5,100C 60.4158,99.7216 61.0825,99.2216 61.5,98.5C 62.5,97.1667 63.5,97.1667 64.5,98.5 Z"/></g>
<g><path style="opacity:1" fill="#c1a7b1" d="M 107.5,100.5 C 111.225,100.78 112.392,102.78 111,106.5C 109.286,105.075 107.953,105.408 107,107.5C 106.297,105.071 106.463,102.738 107.5,100.5 Z"/></g>
<g><path style="opacity:1" fill="#d5c3ca" d="M 22.5,107.5 C 21.9232,105.348 20.7565,105.015 19,106.5C 18.5357,105.906 18.369,105.239 18.5,104.5C 18.0658,101.834 19.0658,100.667 21.5,101C 23.6082,103.016 23.9416,105.183 22.5,107.5 Z"/></g>
<g><path style="opacity:1" fill="#936678" d="M 18.5,104.5 C 18.369,105.239 18.5357,105.906 19,106.5C 20.7565,105.015 21.9232,105.348 22.5,107.5C 21.1196,106.294 19.9529,106.627 19,108.5C 17.3702,107.182 17.2035,105.849 18.5,104.5 Z"/></g>
<g><path style="opacity:1" fill="#997482" d="M 86.5,110.5 C 84.9674,112.245 82.9674,113.245 80.5,113.5C 82.0326,111.755 84.0326,110.755 86.5,110.5 Z"/></g>
<g><path style="opacity:1" fill="#ddcfd4" d="M 30.5,108.5 C 31.675,108.281 32.675,108.614 33.5,109.5C 32.7542,110.736 32.4208,112.07 32.5,113.5C 34.1998,113.374 35.6998,112.707 37,111.5C 37.5,111.833 38,112.167 38.5,112.5C 36.4197,114.993 34.5864,117.659 33,120.5C 32.3076,119.975 31.8076,119.308 31.5,118.5C 32.2458,117.264 32.5792,115.93 32.5,114.5C 30.857,114.48 29.5237,115.147 28.5,116.5C 27.883,113.667 28.5497,111 30.5,108.5 Z"/></g>
<g><path style="opacity:1" fill="#cdbfc4" d="M 47.5,112.5 C 50.1933,112.572 52.8599,112.905 55.5,113.5C 57.0296,113.64 58.0296,114.307 58.5,115.5C 54.521,115.258 50.8544,114.258 47.5,112.5 Z"/></g>
<g><path style="opacity:1" fill="#d5c4cb" d="M 95.5,108.5 C 98.4587,108.35 100.959,109.35 103,111.5C 103.34,116.822 100.84,118.989 95.5,118C 91.5993,114.792 91.5993,111.626 95.5,108.5 Z"/></g>
<g><path style="opacity:1" fill="#6e334a" d="M 96.5,110.5 C 100.099,110.262 100.433,111.262 97.5,113.5C 99.7617,115.508 99.2617,115.841 96,114.5C 95.4209,113.072 95.5876,111.738 96.5,110.5 Z"/></g>
<g><path style="opacity:1" fill="#dccdd3" d="M 84.5,114.5 C 86.7925,114.244 88.9592,114.577 91,115.5C 91.0781,117.657 91.2448,119.657 91.5,121.5C 90.0521,122.354 88.7187,123.354 87.5,124.5C 86.0714,122.045 84.7381,119.545 83.5,117C 83.7432,116.098 84.0766,115.265 84.5,114.5 Z"/></g>
<g><path style="opacity:1" fill="#834f63" d="M 57.5,119.5 C 61.5,118.167 65.5,118.167 69.5,119.5C 67.8333,119.5 66.1667,119.5 64.5,119.5C 64.5,122.167 64.5,124.833 64.5,127.5C 64.5,127.833 64.5,128.167 64.5,128.5C 63.6909,126.708 63.1909,124.708 63,122.5C 62.3292,121.748 61.4959,121.414 60.5,121.5C 60.1788,119.952 59.1788,119.285 57.5,119.5 Z"/></g>
<g><path style="opacity:1" fill="#f9f7f7" d="M 69.5,119.5 C 69.6691,124.041 69.0025,124.374 67.5,120.5C 67.0615,123.295 66.0615,125.628 64.5,127.5C 64.5,124.833 64.5,122.167 64.5,119.5C 66.1667,119.5 67.8333,119.5 69.5,119.5 Z"/></g>
<g><path style="opacity:1" fill="#e3d7dc" d="M 42.5,115.5 C 43.5,115.5 44.5,115.5 45.5,115.5C 45.8204,118.898 45.487,122.232 44.5,125.5C 42.4775,123.827 40.1441,123.16 37.5,123.5C 37.3505,122.448 37.5172,121.448 38,120.5C 39.7073,118.963 41.2073,117.296 42.5,115.5 Z"/></g>
<g><path style="opacity:1" fill="#dccdd3" d="M 54.5,121.5 C 54.7214,122.735 55.3881,123.735 56.5,124.5C 56.1373,125.183 55.8039,125.85 55.5,126.5C 54.4341,127.692 53.6008,127.359 53,125.5C 52.3109,126.357 51.4776,127.023 50.5,127.5C 49.8081,124.23 49.8081,120.897 50.5,117.5C 51.8333,117.5 53.1667,117.5 54.5,117.5C 54.5,118.833 54.5,120.167 54.5,121.5 Z"/></g>
<g><path style="opacity:1" fill="#ebe2e6" d="M 57.5,119.5 C 59.1788,119.285 60.1788,119.952 60.5,121.5C 60.7947,123.735 60.4614,125.735 59.5,127.5C 58.469,125.039 57.8023,122.373 57.5,119.5 Z"/></g>
<g><path style="opacity:1" fill="#996f80" d="M 80.5,117.5 C 79.6236,117.369 78.9569,117.702 78.5,118.5C 79.7059,120.516 79.7059,122.516 78.5,124.5C 77.8933,124.376 77.56,124.043 77.5,123.5C 78.1032,121.374 78.1032,119.041 77.5,116.5C 78.791,116.263 79.791,116.596 80.5,117.5 Z"/></g>
<g><path style="opacity:1" fill="#d3c1c8" d="M 69.5,119.5 C 73.3491,125.466 71.6824,128.466 64.5,128.5C 64.5,128.167 64.5,127.833 64.5,127.5C 66.0615,125.628 67.0615,123.295 67.5,120.5C 69.0025,124.374 69.6691,124.041 69.5,119.5 Z"/></g>
<g><path style="opacity:1" fill="#b494a1" d="M 57.5,119.5 C 57.8023,122.373 58.469,125.039 59.5,127.5C 59.44,128.043 59.1067,128.376 58.5,128.5C 57.7348,127.388 56.7348,126.721 55.5,126.5C 55.8039,125.85 56.1373,125.183 56.5,124.5C 55.3881,123.735 54.7214,122.735 54.5,121.5C 55.7777,121.218 56.7777,120.551 57.5,119.5 Z"/></g>
<g><path style="opacity:1" fill="#ece5e8" d="M 80.5,117.5 C 81.299,120.43 81.6323,123.43 81.5,126.5C 75.1472,127.133 73.1472,124.466 75.5,118.5C 76.1698,120.291 76.8365,121.958 77.5,123.5C 77.56,124.043 77.8933,124.376 78.5,124.5C 79.7059,122.516 79.7059,120.516 78.5,118.5C 78.9569,117.702 79.6236,117.369 80.5,117.5 Z"/></g>
<g><path style="opacity:1" fill="#9d7d89" d="M 37.5,126.5 C 39.9674,126.755 41.9674,127.755 43.5,129.5C 41.0326,129.245 39.0326,128.245 37.5,126.5 Z"/></g>
<g><path style="opacity:1" fill="#b3aaad" d="M 75.5,131.5 C 75.3893,132.117 75.056,132.617 74.5,133C 67.6536,133.821 60.987,133.654 54.5,132.5C 61.5433,132.72 68.5433,132.386 75.5,131.5 Z"/></g>
</svg>
